<?xml version="1.0" encoding="utf-8" standalone="no"?>
<!DOCTYPE svg PUBLIC "-//W3C//DTD SVG 1.1//EN"
  "http://www.w3.org/Graphics/SVG/1.1/DTD/svg11.dtd">
<svg xmlns:xlink="http://www.w3.org/1999/xlink" width="864pt" height="432pt" viewBox="0 0 864 432" xmlns="http://www.w3.org/2000/svg" version="1.1">
 <metadata>
  <rdf:RDF xmlns:dc="http://purl.org/dc/elements/1.1/" xmlns:cc="http://creativecommons.org/ns#" xmlns:rdf="http://www.w3.org/1999/02/22-rdf-syntax-ns#">
   <cc:Work>
    <dc:type rdf:resource="http://purl.org/dc/dcmitype/StillImage"/>
    <dc:date>2025-05-01T13:02:10.988760</dc:date>
    <dc:format>image/svg+xml</dc:format>
    <dc:creator>
     <cc:Agent>
      <dc:title>Matplotlib v3.10.1, https://matplotlib.org/</dc:title>
     </cc:Agent>
    </dc:creator>
   </cc:Work>
  </rdf:RDF>
 </metadata>
 <defs>
  <style type="text/css">*{stroke-linejoin: round; stroke-linecap: butt}</style>
 </defs>
 <g id="figure_1">
  <g id="patch_1">
   <path d="M 0 432 
L 864 432 
L 864 0 
L 0 0 
z
" style="fill: #ffffff"/>
  </g>
  <g id="axes_1">
   <g id="patch_2">
    <path d="M 38.27 390.04 
L 853.2 390.04 
L 853.2 26.88 
L 38.27 26.88 
z
" style="fill: #ffffff"/>
   </g>
   <g id="matplotlib.axis_1">
    <g id="xtick_1">
     <g id="line2d_1">
      <path d="M 67.828985 390.04 
L 67.828985 26.88 
" clip-path="url(#pda269a79ac)" style="fill: none; stroke-dasharray: 2.96,1.28; stroke-dashoffset: 0; stroke: #b0b0b0; stroke-opacity: 0.7; stroke-width: 0.8"/>
     </g>
     <g id="line2d_2">
      <defs>
       <path id="m7dc5a69b73" d="M 0 0 
L 0 3.5 
" style="stroke: #000000; stroke-width: 0.8"/>
      </defs>
      <g>
       <use xlink:href="#m7dc5a69b73" x="67.828985" y="390.04" style="stroke: #000000; stroke-width: 0.8"/>
      </g>
     </g>
     <g id="text_1">
      <!-- 0 -->
      <g transform="translate(64.647735 404.638438) scale(0.1 -0.1)">
       <defs>
        <path id="DejaVuSans-30" d="M 2034 4250 
Q 1547 4250 1301 3770 
Q 1056 3291 1056 2328 
Q 1056 1369 1301 889 
Q 1547 409 2034 409 
Q 2525 409 2770 889 
Q 3016 1369 3016 2328 
Q 3016 3291 2770 3770 
Q 2525 4250 2034 4250 
z
M 2034 4750 
Q 2819 4750 3233 4129 
Q 3647 3509 3647 2328 
Q 3647 1150 3233 529 
Q 2819 -91 2034 -91 
Q 1250 -91 836 529 
Q 422 1150 422 2328 
Q 422 3509 836 4129 
Q 1250 4750 2034 4750 
z
" transform="scale(0.015625)"/>
       </defs>
       <use xlink:href="#DejaVuSans-30"/>
      </g>
     </g>
    </g>
    <g id="xtick_2">
     <g id="line2d_3">
      <path d="M 217.494734 390.04 
L 217.494734 26.88 
" clip-path="url(#pda269a79ac)" style="fill: none; stroke-dasharray: 2.96,1.28; stroke-dashoffset: 0; stroke: #b0b0b0; stroke-opacity: 0.7; stroke-width: 0.8"/>
     </g>
     <g id="line2d_4">
      <g>
       <use xlink:href="#m7dc5a69b73" x="217.494734" y="390.04" style="stroke: #000000; stroke-width: 0.8"/>
      </g>
     </g>
     <g id="text_2">
      <!-- 2000 -->
      <g transform="translate(204.769734 404.638438) scale(0.1 -0.1)">
       <defs>
        <path id="DejaVuSans-32" d="M 1228 531 
L 3431 531 
L 3431 0 
L 469 0 
L 469 531 
Q 828 903 1448 1529 
Q 2069 2156 2228 2338 
Q 2531 2678 2651 2914 
Q 2772 3150 2772 3378 
Q 2772 3750 2511 3984 
Q 2250 4219 1831 4219 
Q 1534 4219 1204 4116 
Q 875 4013 500 3803 
L 500 4441 
Q 881 4594 1212 4672 
Q 1544 4750 1819 4750 
Q 2544 4750 2975 4387 
Q 3406 4025 3406 3419 
Q 3406 3131 3298 2873 
Q 3191 2616 2906 2266 
Q 2828 2175 2409 1742 
Q 1991 1309 1228 531 
z
" transform="scale(0.015625)"/>
       </defs>
       <use xlink:href="#DejaVuSans-32"/>
       <use xlink:href="#DejaVuSans-30" transform="translate(63.623047 0)"/>
       <use xlink:href="#DejaVuSans-30" transform="translate(127.246094 0)"/>
       <use xlink:href="#DejaVuSans-30" transform="translate(190.869141 0)"/>
      </g>
     </g>
    </g>
    <g id="xtick_3">
     <g id="line2d_5">
      <path d="M 367.160482 390.04 
L 367.160482 26.88 
" clip-path="url(#pda269a79ac)" style="fill: none; stroke-dasharray: 2.96,1.28; stroke-dashoffset: 0; stroke: #b0b0b0; stroke-opacity: 0.7; stroke-width: 0.8"/>
     </g>
     <g id="line2d_6">
      <g>
       <use xlink:href="#m7dc5a69b73" x="367.160482" y="390.04" style="stroke: #000000; stroke-width: 0.8"/>
      </g>
     </g>
     <g id="text_3">
      <!-- 4000 -->
      <g transform="translate(354.435482 404.638438) scale(0.1 -0.1)">
       <defs>
        <path id="DejaVuSans-34" d="M 2419 4116 
L 825 1625 
L 2419 1625 
L 2419 4116 
z
M 2253 4666 
L 3047 4666 
L 3047 1625 
L 3713 1625 
L 3713 1100 
L 3047 1100 
L 3047 0 
L 2419 0 
L 2419 1100 
L 313 1100 
L 313 1709 
L 2253 4666 
z
" transform="scale(0.015625)"/>
       </defs>
       <use xlink:href="#DejaVuSans-34"/>
       <use xlink:href="#DejaVuSans-30" transform="translate(63.623047 0)"/>
       <use xlink:href="#DejaVuSans-30" transform="translate(127.246094 0)"/>
       <use xlink:href="#DejaVuSans-30" transform="translate(190.869141 0)"/>
      </g>
     </g>
    </g>
    <g id="xtick_4">
     <g id="line2d_7">
      <path d="M 516.82623 390.04 
L 516.82623 26.88 
" clip-path="url(#pda269a79ac)" style="fill: none; stroke-dasharray: 2.96,1.28; stroke-dashoffset: 0; stroke: #b0b0b0; stroke-opacity: 0.7; stroke-width: 0.8"/>
     </g>
     <g id="line2d_8">
      <g>
       <use xlink:href="#m7dc5a69b73" x="516.82623" y="390.04" style="stroke: #000000; stroke-width: 0.8"/>
      </g>
     </g>
     <g id="text_4">
      <!-- 6000 -->
      <g transform="translate(504.10123 404.638438) scale(0.1 -0.1)">
       <defs>
        <path id="DejaVuSans-36" d="M 2113 2584 
Q 1688 2584 1439 2293 
Q 1191 2003 1191 1497 
Q 1191 994 1439 701 
Q 1688 409 2113 409 
Q 2538 409 2786 701 
Q 3034 994 3034 1497 
Q 3034 2003 2786 2293 
Q 2538 2584 2113 2584 
z
M 3366 4563 
L 3366 3988 
Q 3128 4100 2886 4159 
Q 2644 4219 2406 4219 
Q 1781 4219 1451 3797 
Q 1122 3375 1075 2522 
Q 1259 2794 1537 2939 
Q 1816 3084 2150 3084 
Q 2853 3084 3261 2657 
Q 3669 2231 3669 1497 
Q 3669 778 3244 343 
Q 2819 -91 2113 -91 
Q 1303 -91 875 529 
Q 447 1150 447 2328 
Q 447 3434 972 4092 
Q 1497 4750 2381 4750 
Q 2619 4750 2861 4703 
Q 3103 4656 3366 4563 
z
" transform="scale(0.015625)"/>
       </defs>
       <use xlink:href="#DejaVuSans-36"/>
       <use xlink:href="#DejaVuSans-30" transform="translate(63.623047 0)"/>
       <use xlink:href="#DejaVuSans-30" transform="translate(127.246094 0)"/>
       <use xlink:href="#DejaVuSans-30" transform="translate(190.869141 0)"/>
      </g>
     </g>
    </g>
    <g id="xtick_5">
     <g id="line2d_9">
      <path d="M 666.491979 390.04 
L 666.491979 26.88 
" clip-path="url(#pda269a79ac)" style="fill: none; stroke-dasharray: 2.96,1.28; stroke-dashoffset: 0; stroke: #b0b0b0; stroke-opacity: 0.7; stroke-width: 0.8"/>
     </g>
     <g id="line2d_10">
      <g>
       <use xlink:href="#m7dc5a69b73" x="666.491979" y="390.04" style="stroke: #000000; stroke-width: 0.8"/>
      </g>
     </g>
     <g id="text_5">
      <!-- 8000 -->
      <g transform="translate(653.766979 404.638438) scale(0.1 -0.1)">
       <defs>
        <path id="DejaVuSans-38" d="M 2034 2216 
Q 1584 2216 1326 1975 
Q 1069 1734 1069 1313 
Q 1069 891 1326 650 
Q 1584 409 2034 409 
Q 2484 409 2743 651 
Q 3003 894 3003 1313 
Q 3003 1734 2745 1975 
Q 2488 2216 2034 2216 
z
M 1403 2484 
Q 997 2584 770 2862 
Q 544 3141 544 3541 
Q 544 4100 942 4425 
Q 1341 4750 2034 4750 
Q 2731 4750 3128 4425 
Q 3525 4100 3525 3541 
Q 3525 3141 3298 2862 
Q 3072 2584 2669 2484 
Q 3125 2378 3379 2068 
Q 3634 1759 3634 1313 
Q 3634 634 3220 271 
Q 2806 -91 2034 -91 
Q 1263 -91 848 271 
Q 434 634 434 1313 
Q 434 1759 690 2068 
Q 947 2378 1403 2484 
z
M 1172 3481 
Q 1172 3119 1398 2916 
Q 1625 2713 2034 2713 
Q 2441 2713 2670 2916 
Q 2900 3119 2900 3481 
Q 2900 3844 2670 4047 
Q 2441 4250 2034 4250 
Q 1625 4250 1398 4047 
Q 1172 3844 1172 3481 
z
" transform="scale(0.015625)"/>
       </defs>
       <use xlink:href="#DejaVuSans-38"/>
       <use xlink:href="#DejaVuSans-30" transform="translate(63.623047 0)"/>
       <use xlink:href="#DejaVuSans-30" transform="translate(127.246094 0)"/>
       <use xlink:href="#DejaVuSans-30" transform="translate(190.869141 0)"/>
      </g>
     </g>
    </g>
    <g id="xtick_6">
     <g id="line2d_11">
      <path d="M 816.157727 390.04 
L 816.157727 26.88 
" clip-path="url(#pda269a79ac)" style="fill: none; stroke-dasharray: 2.96,1.28; stroke-dashoffset: 0; stroke: #b0b0b0; stroke-opacity: 0.7; stroke-width: 0.8"/>
     </g>
     <g id="line2d_12">
      <g>
       <use xlink:href="#m7dc5a69b73" x="816.157727" y="390.04" style="stroke: #000000; stroke-width: 0.8"/>
      </g>
     </g>
     <g id="text_6">
      <!-- 10000 -->
      <g transform="translate(800.251477 404.638438) scale(0.1 -0.1)">
       <defs>
        <path id="DejaVuSans-31" d="M 794 531 
L 1825 531 
L 1825 4091 
L 703 3866 
L 703 4441 
L 1819 4666 
L 2450 4666 
L 2450 531 
L 3481 531 
L 3481 0 
L 794 0 
L 794 531 
z
" transform="scale(0.015625)"/>
       </defs>
       <use xlink:href="#DejaVuSans-31"/>
       <use xlink:href="#DejaVuSans-30" transform="translate(63.623047 0)"/>
       <use xlink:href="#DejaVuSans-30" transform="translate(127.246094 0)"/>
       <use xlink:href="#DejaVuSans-30" transform="translate(190.869141 0)"/>
       <use xlink:href="#DejaVuSans-30" transform="translate(254.492188 0)"/>
      </g>
     </g>
    </g>
    <g id="text_7">
     <!-- Files count -->
     <g transform="translate(419.067031 418.316562) scale(0.1 -0.1)">
      <defs>
       <path id="DejaVuSans-46" d="M 628 4666 
L 3309 4666 
L 3309 4134 
L 1259 4134 
L 1259 2759 
L 3109 2759 
L 3109 2228 
L 1259 2228 
L 1259 0 
L 628 0 
L 628 4666 
z
" transform="scale(0.015625)"/>
       <path id="DejaVuSans-69" d="M 603 3500 
L 1178 3500 
L 1178 0 
L 603 0 
L 603 3500 
z
M 603 4863 
L 1178 4863 
L 1178 4134 
L 603 4134 
L 603 4863 
z
" transform="scale(0.015625)"/>
       <path id="DejaVuSans-6c" d="M 603 4863 
L 1178 4863 
L 1178 0 
L 603 0 
L 603 4863 
z
" transform="scale(0.015625)"/>
       <path id="DejaVuSans-65" d="M 3597 1894 
L 3597 1613 
L 953 1613 
Q 991 1019 1311 708 
Q 1631 397 2203 397 
Q 2534 397 2845 478 
Q 3156 559 3463 722 
L 3463 178 
Q 3153 47 2828 -22 
Q 2503 -91 2169 -91 
Q 1331 -91 842 396 
Q 353 884 353 1716 
Q 353 2575 817 3079 
Q 1281 3584 2069 3584 
Q 2775 3584 3186 3129 
Q 3597 2675 3597 1894 
z
M 3022 2063 
Q 3016 2534 2758 2815 
Q 2500 3097 2075 3097 
Q 1594 3097 1305 2825 
Q 1016 2553 972 2059 
L 3022 2063 
z
" transform="scale(0.015625)"/>
       <path id="DejaVuSans-73" d="M 2834 3397 
L 2834 2853 
Q 2591 2978 2328 3040 
Q 2066 3103 1784 3103 
Q 1356 3103 1142 2972 
Q 928 2841 928 2578 
Q 928 2378 1081 2264 
Q 1234 2150 1697 2047 
L 1894 2003 
Q 2506 1872 2764 1633 
Q 3022 1394 3022 966 
Q 3022 478 2636 193 
Q 2250 -91 1575 -91 
Q 1294 -91 989 -36 
Q 684 19 347 128 
L 347 722 
Q 666 556 975 473 
Q 1284 391 1588 391 
Q 1994 391 2212 530 
Q 2431 669 2431 922 
Q 2431 1156 2273 1281 
Q 2116 1406 1581 1522 
L 1381 1569 
Q 847 1681 609 1914 
Q 372 2147 372 2553 
Q 372 3047 722 3315 
Q 1072 3584 1716 3584 
Q 2034 3584 2315 3537 
Q 2597 3491 2834 3397 
z
" transform="scale(0.015625)"/>
       <path id="DejaVuSans-20" transform="scale(0.015625)"/>
       <path id="DejaVuSans-63" d="M 3122 3366 
L 3122 2828 
Q 2878 2963 2633 3030 
Q 2388 3097 2138 3097 
Q 1578 3097 1268 2742 
Q 959 2388 959 1747 
Q 959 1106 1268 751 
Q 1578 397 2138 397 
Q 2388 397 2633 464 
Q 2878 531 3122 666 
L 3122 134 
Q 2881 22 2623 -34 
Q 2366 -91 2075 -91 
Q 1284 -91 818 406 
Q 353 903 353 1747 
Q 353 2603 823 3093 
Q 1294 3584 2113 3584 
Q 2378 3584 2631 3529 
Q 2884 3475 3122 3366 
z
" transform="scale(0.015625)"/>
       <path id="DejaVuSans-6f" d="M 1959 3097 
Q 1497 3097 1228 2736 
Q 959 2375 959 1747 
Q 959 1119 1226 758 
Q 1494 397 1959 397 
Q 2419 397 2687 759 
Q 2956 1122 2956 1747 
Q 2956 2369 2687 2733 
Q 2419 3097 1959 3097 
z
M 1959 3584 
Q 2709 3584 3137 3096 
Q 3566 2609 3566 1747 
Q 3566 888 3137 398 
Q 2709 -91 1959 -91 
Q 1206 -91 779 398 
Q 353 888 353 1747 
Q 353 2609 779 3096 
Q 1206 3584 1959 3584 
z
" transform="scale(0.015625)"/>
       <path id="DejaVuSans-75" d="M 544 1381 
L 544 3500 
L 1119 3500 
L 1119 1403 
Q 1119 906 1312 657 
Q 1506 409 1894 409 
Q 2359 409 2629 706 
Q 2900 1003 2900 1516 
L 2900 3500 
L 3475 3500 
L 3475 0 
L 2900 0 
L 2900 538 
Q 2691 219 2414 64 
Q 2138 -91 1772 -91 
Q 1169 -91 856 284 
Q 544 659 544 1381 
z
M 1991 3584 
L 1991 3584 
z
" transform="scale(0.015625)"/>
       <path id="DejaVuSans-6e" d="M 3513 2113 
L 3513 0 
L 2938 0 
L 2938 2094 
Q 2938 2591 2744 2837 
Q 2550 3084 2163 3084 
Q 1697 3084 1428 2787 
Q 1159 2491 1159 1978 
L 1159 0 
L 581 0 
L 581 3500 
L 1159 3500 
L 1159 2956 
Q 1366 3272 1645 3428 
Q 1925 3584 2291 3584 
Q 2894 3584 3203 3211 
Q 3513 2838 3513 2113 
z
" transform="scale(0.015625)"/>
       <path id="DejaVuSans-74" d="M 1172 4494 
L 1172 3500 
L 2356 3500 
L 2356 3053 
L 1172 3053 
L 1172 1153 
Q 1172 725 1289 603 
Q 1406 481 1766 481 
L 2356 481 
L 2356 0 
L 1766 0 
Q 1100 0 847 248 
Q 594 497 594 1153 
L 594 3053 
L 172 3053 
L 172 3500 
L 594 3500 
L 594 4494 
L 1172 4494 
z
" transform="scale(0.015625)"/>
      </defs>
      <use xlink:href="#DejaVuSans-46"/>
      <use xlink:href="#DejaVuSans-69" transform="translate(50.269531 0)"/>
      <use xlink:href="#DejaVuSans-6c" transform="translate(78.052734 0)"/>
      <use xlink:href="#DejaVuSans-65" transform="translate(105.835938 0)"/>
      <use xlink:href="#DejaVuSans-73" transform="translate(167.359375 0)"/>
      <use xlink:href="#DejaVuSans-20" transform="translate(219.458984 0)"/>
      <use xlink:href="#DejaVuSans-63" transform="translate(251.246094 0)"/>
      <use xlink:href="#DejaVuSans-6f" transform="translate(306.226562 0)"/>
      <use xlink:href="#DejaVuSans-75" transform="translate(367.408203 0)"/>
      <use xlink:href="#DejaVuSans-6e" transform="translate(430.787109 0)"/>
      <use xlink:href="#DejaVuSans-74" transform="translate(494.166016 0)"/>
     </g>
    </g>
   </g>
   <g id="matplotlib.axis_2">
    <g id="ytick_1">
     <g id="line2d_13">
      <path d="M 38.27 374.229716 
L 853.2 374.229716 
" clip-path="url(#pda269a79ac)" style="fill: none; stroke-dasharray: 2.96,1.28; stroke-dashoffset: 0; stroke: #b0b0b0; stroke-opacity: 0.7; stroke-width: 0.8"/>
     </g>
     <g id="line2d_14">
      <defs>
       <path id="mf6ac63addd" d="M 0 0 
L -3.5 0 
" style="stroke: #000000; stroke-width: 0.8"/>
      </defs>
      <g>
       <use xlink:href="#mf6ac63addd" x="38.27" y="374.229716" style="stroke: #000000; stroke-width: 0.8"/>
      </g>
     </g>
     <g id="text_8">
      <!-- 0 -->
      <g transform="translate(24.9075 378.028935) scale(0.1 -0.1)">
       <use xlink:href="#DejaVuSans-30"/>
      </g>
     </g>
    </g>
    <g id="ytick_2">
     <g id="line2d_15">
      <path d="M 38.27 324.906579 
L 853.2 324.906579 
" clip-path="url(#pda269a79ac)" style="fill: none; stroke-dasharray: 2.96,1.28; stroke-dashoffset: 0; stroke: #b0b0b0; stroke-opacity: 0.7; stroke-width: 0.8"/>
     </g>
     <g id="line2d_16">
      <g>
       <use xlink:href="#mf6ac63addd" x="38.27" y="324.906579" style="stroke: #000000; stroke-width: 0.8"/>
      </g>
     </g>
     <g id="text_9">
      <!-- 1 -->
      <g transform="translate(24.9075 328.705798) scale(0.1 -0.1)">
       <use xlink:href="#DejaVuSans-31"/>
      </g>
     </g>
    </g>
    <g id="ytick_3">
     <g id="line2d_17">
      <path d="M 38.27 275.583442 
L 853.2 275.583442 
" clip-path="url(#pda269a79ac)" style="fill: none; stroke-dasharray: 2.96,1.28; stroke-dashoffset: 0; stroke: #b0b0b0; stroke-opacity: 0.7; stroke-width: 0.8"/>
     </g>
     <g id="line2d_18">
      <g>
       <use xlink:href="#mf6ac63addd" x="38.27" y="275.583442" style="stroke: #000000; stroke-width: 0.8"/>
      </g>
     </g>
     <g id="text_10">
      <!-- 2 -->
      <g transform="translate(24.9075 279.382661) scale(0.1 -0.1)">
       <use xlink:href="#DejaVuSans-32"/>
      </g>
     </g>
    </g>
    <g id="ytick_4">
     <g id="line2d_19">
      <path d="M 38.27 226.260305 
L 853.2 226.260305 
" clip-path="url(#pda269a79ac)" style="fill: none; stroke-dasharray: 2.96,1.28; stroke-dashoffset: 0; stroke: #b0b0b0; stroke-opacity: 0.7; stroke-width: 0.8"/>
     </g>
     <g id="line2d_20">
      <g>
       <use xlink:href="#mf6ac63addd" x="38.27" y="226.260305" style="stroke: #000000; stroke-width: 0.8"/>
      </g>
     </g>
     <g id="text_11">
      <!-- 3 -->
      <g transform="translate(24.9075 230.059524) scale(0.1 -0.1)">
       <defs>
        <path id="DejaVuSans-33" d="M 2597 2516 
Q 3050 2419 3304 2112 
Q 3559 1806 3559 1356 
Q 3559 666 3084 287 
Q 2609 -91 1734 -91 
Q 1441 -91 1130 -33 
Q 819 25 488 141 
L 488 750 
Q 750 597 1062 519 
Q 1375 441 1716 441 
Q 2309 441 2620 675 
Q 2931 909 2931 1356 
Q 2931 1769 2642 2001 
Q 2353 2234 1838 2234 
L 1294 2234 
L 1294 2753 
L 1863 2753 
Q 2328 2753 2575 2939 
Q 2822 3125 2822 3475 
Q 2822 3834 2567 4026 
Q 2313 4219 1838 4219 
Q 1578 4219 1281 4162 
Q 984 4106 628 3988 
L 628 4550 
Q 988 4650 1302 4700 
Q 1616 4750 1894 4750 
Q 2613 4750 3031 4423 
Q 3450 4097 3450 3541 
Q 3450 3153 3228 2886 
Q 3006 2619 2597 2516 
z
" transform="scale(0.015625)"/>
       </defs>
       <use xlink:href="#DejaVuSans-33"/>
      </g>
     </g>
    </g>
    <g id="ytick_5">
     <g id="line2d_21">
      <path d="M 38.27 176.937168 
L 853.2 176.937168 
" clip-path="url(#pda269a79ac)" style="fill: none; stroke-dasharray: 2.96,1.28; stroke-dashoffset: 0; stroke: #b0b0b0; stroke-opacity: 0.7; stroke-width: 0.8"/>
     </g>
     <g id="line2d_22">
      <g>
       <use xlink:href="#mf6ac63addd" x="38.27" y="176.937168" style="stroke: #000000; stroke-width: 0.8"/>
      </g>
     </g>
     <g id="text_12">
      <!-- 4 -->
      <g transform="translate(24.9075 180.736387) scale(0.1 -0.1)">
       <use xlink:href="#DejaVuSans-34"/>
      </g>
     </g>
    </g>
    <g id="ytick_6">
     <g id="line2d_23">
      <path d="M 38.27 127.614031 
L 853.2 127.614031 
" clip-path="url(#pda269a79ac)" style="fill: none; stroke-dasharray: 2.96,1.28; stroke-dashoffset: 0; stroke: #b0b0b0; stroke-opacity: 0.7; stroke-width: 0.8"/>
     </g>
     <g id="line2d_24">
      <g>
       <use xlink:href="#mf6ac63addd" x="38.27" y="127.614031" style="stroke: #000000; stroke-width: 0.8"/>
      </g>
     </g>
     <g id="text_13">
      <!-- 5 -->
      <g transform="translate(24.9075 131.41325) scale(0.1 -0.1)">
       <defs>
        <path id="DejaVuSans-35" d="M 691 4666 
L 3169 4666 
L 3169 4134 
L 1269 4134 
L 1269 2991 
Q 1406 3038 1543 3061 
Q 1681 3084 1819 3084 
Q 2600 3084 3056 2656 
Q 3513 2228 3513 1497 
Q 3513 744 3044 326 
Q 2575 -91 1722 -91 
Q 1428 -91 1123 -41 
Q 819 9 494 109 
L 494 744 
Q 775 591 1075 516 
Q 1375 441 1709 441 
Q 2250 441 2565 725 
Q 2881 1009 2881 1497 
Q 2881 1984 2565 2268 
Q 2250 2553 1709 2553 
Q 1456 2553 1204 2497 
Q 953 2441 691 2322 
L 691 4666 
z
" transform="scale(0.015625)"/>
       </defs>
       <use xlink:href="#DejaVuSans-35"/>
      </g>
     </g>
    </g>
    <g id="ytick_7">
     <g id="line2d_25">
      <path d="M 38.27 78.290894 
L 853.2 78.290894 
" clip-path="url(#pda269a79ac)" style="fill: none; stroke-dasharray: 2.96,1.28; stroke-dashoffset: 0; stroke: #b0b0b0; stroke-opacity: 0.7; stroke-width: 0.8"/>
     </g>
     <g id="line2d_26">
      <g>
       <use xlink:href="#mf6ac63addd" x="38.27" y="78.290894" style="stroke: #000000; stroke-width: 0.8"/>
      </g>
     </g>
     <g id="text_14">
      <!-- 6 -->
      <g transform="translate(24.9075 82.090113) scale(0.1 -0.1)">
       <use xlink:href="#DejaVuSans-36"/>
      </g>
     </g>
    </g>
    <g id="ytick_8">
     <g id="line2d_27">
      <path d="M 38.27 28.967757 
L 853.2 28.967757 
" clip-path="url(#pda269a79ac)" style="fill: none; stroke-dasharray: 2.96,1.28; stroke-dashoffset: 0; stroke: #b0b0b0; stroke-opacity: 0.7; stroke-width: 0.8"/>
     </g>
     <g id="line2d_28">
      <g>
       <use xlink:href="#mf6ac63addd" x="38.27" y="28.967757" style="stroke: #000000; stroke-width: 0.8"/>
      </g>
     </g>
     <g id="text_15">
      <!-- 7 -->
      <g transform="translate(24.9075 32.766976) scale(0.1 -0.1)">
       <defs>
        <path id="DejaVuSans-37" d="M 525 4666 
L 3525 4666 
L 3525 4397 
L 1831 0 
L 1172 0 
L 2766 4134 
L 525 4134 
L 525 4666 
z
" transform="scale(0.015625)"/>
       </defs>
       <use xlink:href="#DejaVuSans-37"/>
      </g>
     </g>
    </g>
    <g id="text_16">
     <!-- Execution time (seconds) -->
     <g transform="translate(18.827813 271.807656) rotate(-90) scale(0.1 -0.1)">
      <defs>
       <path id="DejaVuSans-45" d="M 628 4666 
L 3578 4666 
L 3578 4134 
L 1259 4134 
L 1259 2753 
L 3481 2753 
L 3481 2222 
L 1259 2222 
L 1259 531 
L 3634 531 
L 3634 0 
L 628 0 
L 628 4666 
z
" transform="scale(0.015625)"/>
       <path id="DejaVuSans-78" d="M 3513 3500 
L 2247 1797 
L 3578 0 
L 2900 0 
L 1881 1375 
L 863 0 
L 184 0 
L 1544 1831 
L 300 3500 
L 978 3500 
L 1906 2253 
L 2834 3500 
L 3513 3500 
z
" transform="scale(0.015625)"/>
       <path id="DejaVuSans-6d" d="M 3328 2828 
Q 3544 3216 3844 3400 
Q 4144 3584 4550 3584 
Q 5097 3584 5394 3201 
Q 5691 2819 5691 2113 
L 5691 0 
L 5113 0 
L 5113 2094 
Q 5113 2597 4934 2840 
Q 4756 3084 4391 3084 
Q 3944 3084 3684 2787 
Q 3425 2491 3425 1978 
L 3425 0 
L 2847 0 
L 2847 2094 
Q 2847 2600 2669 2842 
Q 2491 3084 2119 3084 
Q 1678 3084 1418 2786 
Q 1159 2488 1159 1978 
L 1159 0 
L 581 0 
L 581 3500 
L 1159 3500 
L 1159 2956 
Q 1356 3278 1631 3431 
Q 1906 3584 2284 3584 
Q 2666 3584 2933 3390 
Q 3200 3197 3328 2828 
z
" transform="scale(0.015625)"/>
       <path id="DejaVuSans-28" d="M 1984 4856 
Q 1566 4138 1362 3434 
Q 1159 2731 1159 2009 
Q 1159 1288 1364 580 
Q 1569 -128 1984 -844 
L 1484 -844 
Q 1016 -109 783 600 
Q 550 1309 550 2009 
Q 550 2706 781 3412 
Q 1013 4119 1484 4856 
L 1984 4856 
z
" transform="scale(0.015625)"/>
       <path id="DejaVuSans-64" d="M 2906 2969 
L 2906 4863 
L 3481 4863 
L 3481 0 
L 2906 0 
L 2906 525 
Q 2725 213 2448 61 
Q 2172 -91 1784 -91 
Q 1150 -91 751 415 
Q 353 922 353 1747 
Q 353 2572 751 3078 
Q 1150 3584 1784 3584 
Q 2172 3584 2448 3432 
Q 2725 3281 2906 2969 
z
M 947 1747 
Q 947 1113 1208 752 
Q 1469 391 1925 391 
Q 2381 391 2643 752 
Q 2906 1113 2906 1747 
Q 2906 2381 2643 2742 
Q 2381 3103 1925 3103 
Q 1469 3103 1208 2742 
Q 947 2381 947 1747 
z
" transform="scale(0.015625)"/>
       <path id="DejaVuSans-29" d="M 513 4856 
L 1013 4856 
Q 1481 4119 1714 3412 
Q 1947 2706 1947 2009 
Q 1947 1309 1714 600 
Q 1481 -109 1013 -844 
L 513 -844 
Q 928 -128 1133 580 
Q 1338 1288 1338 2009 
Q 1338 2731 1133 3434 
Q 928 4138 513 4856 
z
" transform="scale(0.015625)"/>
      </defs>
      <use xlink:href="#DejaVuSans-45"/>
      <use xlink:href="#DejaVuSans-78" transform="translate(63.183594 0)"/>
      <use xlink:href="#DejaVuSans-65" transform="translate(119.238281 0)"/>
      <use xlink:href="#DejaVuSans-63" transform="translate(180.761719 0)"/>
      <use xlink:href="#DejaVuSans-75" transform="translate(235.742188 0)"/>
      <use xlink:href="#DejaVuSans-74" transform="translate(299.121094 0)"/>
      <use xlink:href="#DejaVuSans-69" transform="translate(338.330078 0)"/>
      <use xlink:href="#DejaVuSans-6f" transform="translate(366.113281 0)"/>
      <use xlink:href="#DejaVuSans-6e" transform="translate(427.294922 0)"/>
      <use xlink:href="#DejaVuSans-20" transform="translate(490.673828 0)"/>
      <use xlink:href="#DejaVuSans-74" transform="translate(522.460938 0)"/>
      <use xlink:href="#DejaVuSans-69" transform="translate(561.669922 0)"/>
      <use xlink:href="#DejaVuSans-6d" transform="translate(589.453125 0)"/>
      <use xlink:href="#DejaVuSans-65" transform="translate(686.865234 0)"/>
      <use xlink:href="#DejaVuSans-20" transform="translate(748.388672 0)"/>
      <use xlink:href="#DejaVuSans-28" transform="translate(780.175781 0)"/>
      <use xlink:href="#DejaVuSans-73" transform="translate(819.189453 0)"/>
      <use xlink:href="#DejaVuSans-65" transform="translate(871.289062 0)"/>
      <use xlink:href="#DejaVuSans-63" transform="translate(932.8125 0)"/>
      <use xlink:href="#DejaVuSans-6f" transform="translate(987.792969 0)"/>
      <use xlink:href="#DejaVuSans-6e" transform="translate(1048.974609 0)"/>
      <use xlink:href="#DejaVuSans-64" transform="translate(1112.353516 0)"/>
      <use xlink:href="#DejaVuSans-73" transform="translate(1175.830078 0)"/>
      <use xlink:href="#DejaVuSans-29" transform="translate(1227.929688 0)"/>
     </g>
    </g>
   </g>
   <g id="line2d_29">
    <path d="M 75.312273 365.789239 
L 105.245422 357.422223 
L 142.66186 352.799896 
L 217.494734 320.293224 
L 441.993356 236.226478 
L 666.491979 80.674649 
L 816.157727 43.387273 
" clip-path="url(#pda269a79ac)" style="fill: none; stroke: #ff0000; stroke-width: 1.5; stroke-linecap: square"/>
    <defs>
     <path id="mc0931a4a4c" d="M 0 3 
C 0.795609 3 1.55874 2.683901 2.12132 2.12132 
C 2.683901 1.55874 3 0.795609 3 0 
C 3 -0.795609 2.683901 -1.55874 2.12132 -2.12132 
C 1.55874 -2.683901 0.795609 -3 0 -3 
C -0.795609 -3 -1.55874 -2.683901 -2.12132 -2.12132 
C -2.683901 -1.55874 -3 -0.795609 -3 0 
C -3 0.795609 -2.683901 1.55874 -2.12132 2.12132 
C -1.55874 2.683901 -0.795609 3 0 3 
z
" style="stroke: #ff0000"/>
    </defs>
    <g clip-path="url(#pda269a79ac)">
     <use xlink:href="#mc0931a4a4c" x="75.312273" y="365.789239" style="fill: #ff0000; stroke: #ff0000"/>
     <use xlink:href="#mc0931a4a4c" x="105.245422" y="357.422223" style="fill: #ff0000; stroke: #ff0000"/>
     <use xlink:href="#mc0931a4a4c" x="142.66186" y="352.799896" style="fill: #ff0000; stroke: #ff0000"/>
     <use xlink:href="#mc0931a4a4c" x="217.494734" y="320.293224" style="fill: #ff0000; stroke: #ff0000"/>
     <use xlink:href="#mc0931a4a4c" x="441.993356" y="236.226478" style="fill: #ff0000; stroke: #ff0000"/>
     <use xlink:href="#mc0931a4a4c" x="666.491979" y="80.674649" style="fill: #ff0000; stroke: #ff0000"/>
     <use xlink:href="#mc0931a4a4c" x="816.157727" y="43.387273" style="fill: #ff0000; stroke: #ff0000"/>
    </g>
   </g>
   <g id="line2d_30">
    <path d="M 75.312273 373.359744 
L 105.245422 371.681938 
L 142.66186 368.951794 
L 217.494734 365.212844 
L 441.993356 278.732427 
L 666.491979 243.938404 
L 816.157727 181.989671 
" clip-path="url(#pda269a79ac)" style="fill: none; stroke: #00aa00; stroke-width: 1.5; stroke-linecap: square"/>
    <defs>
     <path id="m6dfd544a6b" d="M 0 3 
C 0.795609 3 1.55874 2.683901 2.12132 2.12132 
C 2.683901 1.55874 3 0.795609 3 0 
C 3 -0.795609 2.683901 -1.55874 2.12132 -2.12132 
C 1.55874 -2.683901 0.795609 -3 0 -3 
C -0.795609 -3 -1.55874 -2.683901 -2.12132 -2.12132 
C -2.683901 -1.55874 -3 -0.795609 -3 0 
C -3 0.795609 -2.683901 1.55874 -2.12132 2.12132 
C -1.55874 2.683901 -0.795609 3 0 3 
z
" style="stroke: #00aa00"/>
    </defs>
    <g clip-path="url(#pda269a79ac)">
     <use xlink:href="#m6dfd544a6b" x="75.312273" y="373.359744" style="fill: #00aa00; stroke: #00aa00"/>
     <use xlink:href="#m6dfd544a6b" x="105.245422" y="371.681938" style="fill: #00aa00; stroke: #00aa00"/>
     <use xlink:href="#m6dfd544a6b" x="142.66186" y="368.951794" style="fill: #00aa00; stroke: #00aa00"/>
     <use xlink:href="#m6dfd544a6b" x="217.494734" y="365.212844" style="fill: #00aa00; stroke: #00aa00"/>
     <use xlink:href="#m6dfd544a6b" x="441.993356" y="278.732427" style="fill: #00aa00; stroke: #00aa00"/>
     <use xlink:href="#m6dfd544a6b" x="666.491979" y="243.938404" style="fill: #00aa00; stroke: #00aa00"/>
     <use xlink:href="#m6dfd544a6b" x="816.157727" y="181.989671" style="fill: #00aa00; stroke: #00aa00"/>
    </g>
   </g>
   <g id="line2d_31">
    <path d="M 75.312273 372.965717 
L 105.245422 370.279624 
L 142.66186 370.233514 
L 217.494734 366.196554 
L 441.993356 330.750053 
L 666.491979 295.21351 
L 816.157727 271.225364 
" clip-path="url(#pda269a79ac)" style="fill: none; stroke: #0000ff; stroke-width: 1.5; stroke-linecap: square"/>
    <defs>
     <path id="m5f9ccf3123" d="M 0 3 
C 0.795609 3 1.55874 2.683901 2.12132 2.12132 
C 2.683901 1.55874 3 0.795609 3 0 
C 3 -0.795609 2.683901 -1.55874 2.12132 -2.12132 
C 1.55874 -2.683901 0.795609 -3 0 -3 
C -0.795609 -3 -1.55874 -2.683901 -2.12132 -2.12132 
C -2.683901 -1.55874 -3 -0.795609 -3 0 
C -3 0.795609 -2.683901 1.55874 -2.12132 2.12132 
C -1.55874 2.683901 -0.795609 3 0 3 
z
" style="stroke: #0000ff"/>
    </defs>
    <g clip-path="url(#pda269a79ac)">
     <use xlink:href="#m5f9ccf3123" x="75.312273" y="372.965717" style="fill: #0000ff; stroke: #0000ff"/>
     <use xlink:href="#m5f9ccf3123" x="105.245422" y="370.279624" style="fill: #0000ff; stroke: #0000ff"/>
     <use xlink:href="#m5f9ccf3123" x="142.66186" y="370.233514" style="fill: #0000ff; stroke: #0000ff"/>
     <use xlink:href="#m5f9ccf3123" x="217.494734" y="366.196554" style="fill: #0000ff; stroke: #0000ff"/>
     <use xlink:href="#m5f9ccf3123" x="441.993356" y="330.750053" style="fill: #0000ff; stroke: #0000ff"/>
     <use xlink:href="#m5f9ccf3123" x="666.491979" y="295.21351" style="fill: #0000ff; stroke: #0000ff"/>
     <use xlink:href="#m5f9ccf3123" x="816.157727" y="271.225364" style="fill: #0000ff; stroke: #0000ff"/>
    </g>
   </g>
   <g id="line2d_32">
    <path d="M 75.312273 373.436993 
L 105.245422 372.131694 
L 142.66186 370.215064 
L 217.494734 366.33915 
L 441.993356 353.625311 
L 666.491979 341.433665 
L 816.157727 333.720669 
" clip-path="url(#pda269a79ac)" style="fill: none; stroke: #ffa500; stroke-width: 1.5; stroke-linecap: square"/>
    <defs>
     <path id="m74834e97d1" d="M 0 3 
C 0.795609 3 1.55874 2.683901 2.12132 2.12132 
C 2.683901 1.55874 3 0.795609 3 0 
C 3 -0.795609 2.683901 -1.55874 2.12132 -2.12132 
C 1.55874 -2.683901 0.795609 -3 0 -3 
C -0.795609 -3 -1.55874 -2.683901 -2.12132 -2.12132 
C -2.683901 -1.55874 -3 -0.795609 -3 0 
C -3 0.795609 -2.683901 1.55874 -2.12132 2.12132 
C -1.55874 2.683901 -0.795609 3 0 3 
z
" style="stroke: #ffa500"/>
    </defs>
    <g clip-path="url(#pda269a79ac)">
     <use xlink:href="#m74834e97d1" x="75.312273" y="373.436993" style="fill: #ffa500; stroke: #ffa500"/>
     <use xlink:href="#m74834e97d1" x="105.245422" y="372.131694" style="fill: #ffa500; stroke: #ffa500"/>
     <use xlink:href="#m74834e97d1" x="142.66186" y="370.215064" style="fill: #ffa500; stroke: #ffa500"/>
     <use xlink:href="#m74834e97d1" x="217.494734" y="366.33915" style="fill: #ffa500; stroke: #ffa500"/>
     <use xlink:href="#m74834e97d1" x="441.993356" y="353.625311" style="fill: #ffa500; stroke: #ffa500"/>
     <use xlink:href="#m74834e97d1" x="666.491979" y="341.433665" style="fill: #ffa500; stroke: #ffa500"/>
     <use xlink:href="#m74834e97d1" x="816.157727" y="333.720669" style="fill: #ffa500; stroke: #ffa500"/>
    </g>
   </g>
   <g id="line2d_33">
    <path d="M 75.312273 373.398174 
L 105.245422 371.94881 
L 142.66186 367.988569 
L 217.494734 366.899905 
L 441.993356 354.711458 
L 666.491979 341.944771 
L 816.157727 335.993532 
" clip-path="url(#pda269a79ac)" style="fill: none; stroke: #800080; stroke-opacity: 0.1; stroke-width: 1.5; stroke-linecap: square"/>
    <defs>
     <path id="ma0f5e9ada9" d="M 0 3 
C 0.795609 3 1.55874 2.683901 2.12132 2.12132 
C 2.683901 1.55874 3 0.795609 3 0 
C 3 -0.795609 2.683901 -1.55874 2.12132 -2.12132 
C 1.55874 -2.683901 0.795609 -3 0 -3 
C -0.795609 -3 -1.55874 -2.683901 -2.12132 -2.12132 
C -2.683901 -1.55874 -3 -0.795609 -3 0 
C -3 0.795609 -2.683901 1.55874 -2.12132 2.12132 
C -1.55874 2.683901 -0.795609 3 0 3 
z
" style="stroke: #800080; stroke-opacity: 0.1"/>
    </defs>
    <g clip-path="url(#pda269a79ac)">
     <use xlink:href="#ma0f5e9ada9" x="75.312273" y="373.398174" style="fill: #800080; fill-opacity: 0.1; stroke: #800080; stroke-opacity: 0.1"/>
     <use xlink:href="#ma0f5e9ada9" x="105.245422" y="371.94881" style="fill: #800080; fill-opacity: 0.1; stroke: #800080; stroke-opacity: 0.1"/>
     <use xlink:href="#ma0f5e9ada9" x="142.66186" y="367.988569" style="fill: #800080; fill-opacity: 0.1; stroke: #800080; stroke-opacity: 0.1"/>
     <use xlink:href="#ma0f5e9ada9" x="217.494734" y="366.899905" style="fill: #800080; fill-opacity: 0.1; stroke: #800080; stroke-opacity: 0.1"/>
     <use xlink:href="#ma0f5e9ada9" x="441.993356" y="354.711458" style="fill: #800080; fill-opacity: 0.1; stroke: #800080; stroke-opacity: 0.1"/>
     <use xlink:href="#ma0f5e9ada9" x="666.491979" y="341.944771" style="fill: #800080; fill-opacity: 0.1; stroke: #800080; stroke-opacity: 0.1"/>
     <use xlink:href="#ma0f5e9ada9" x="816.157727" y="335.993532" style="fill: #800080; fill-opacity: 0.1; stroke: #800080; stroke-opacity: 0.1"/>
    </g>
   </g>
   <g id="line2d_34">
    <path d="M 75.312273 373.532727 
L 105.245422 372.143148 
L 142.66186 369.856727 
L 217.494734 366.75411 
L 441.993356 351.770335 
L 666.491979 341.768918 
L 816.157727 333.504376 
" clip-path="url(#pda269a79ac)" style="fill: none; stroke: #008080; stroke-opacity: 0.1; stroke-width: 1.5; stroke-linecap: square"/>
    <defs>
     <path id="m0d79c271c6" d="M 0 3 
C 0.795609 3 1.55874 2.683901 2.12132 2.12132 
C 2.683901 1.55874 3 0.795609 3 0 
C 3 -0.795609 2.683901 -1.55874 2.12132 -2.12132 
C 1.55874 -2.683901 0.795609 -3 0 -3 
C -0.795609 -3 -1.55874 -2.683901 -2.12132 -2.12132 
C -2.683901 -1.55874 -3 -0.795609 -3 0 
C -3 0.795609 -2.683901 1.55874 -2.12132 2.12132 
C -1.55874 2.683901 -0.795609 3 0 3 
z
" style="stroke: #008080; stroke-opacity: 0.1"/>
    </defs>
    <g clip-path="url(#pda269a79ac)">
     <use xlink:href="#m0d79c271c6" x="75.312273" y="373.532727" style="fill: #008080; fill-opacity: 0.1; stroke: #008080; stroke-opacity: 0.1"/>
     <use xlink:href="#m0d79c271c6" x="105.245422" y="372.143148" style="fill: #008080; fill-opacity: 0.1; stroke: #008080; stroke-opacity: 0.1"/>
     <use xlink:href="#m0d79c271c6" x="142.66186" y="369.856727" style="fill: #008080; fill-opacity: 0.1; stroke: #008080; stroke-opacity: 0.1"/>
     <use xlink:href="#m0d79c271c6" x="217.494734" y="366.75411" style="fill: #008080; fill-opacity: 0.1; stroke: #008080; stroke-opacity: 0.1"/>
     <use xlink:href="#m0d79c271c6" x="441.993356" y="351.770335" style="fill: #008080; fill-opacity: 0.1; stroke: #008080; stroke-opacity: 0.1"/>
     <use xlink:href="#m0d79c271c6" x="666.491979" y="341.768918" style="fill: #008080; fill-opacity: 0.1; stroke: #008080; stroke-opacity: 0.1"/>
     <use xlink:href="#m0d79c271c6" x="816.157727" y="333.504376" style="fill: #008080; fill-opacity: 0.1; stroke: #008080; stroke-opacity: 0.1"/>
    </g>
   </g>
   <g id="line2d_35">
    <path d="M 75.312273 373.529235 
L 105.245422 372.08495 
L 142.66186 370.401511 
L 217.494734 366.943944 
L 441.993356 354.382579 
L 666.491979 342.984891 
L 816.157727 335.424393 
" clip-path="url(#pda269a79ac)" style="fill: none; stroke: #ff00ff; stroke-opacity: 0.1; stroke-width: 1.5; stroke-linecap: square"/>
    <defs>
     <path id="mba358eb714" d="M 0 3 
C 0.795609 3 1.55874 2.683901 2.12132 2.12132 
C 2.683901 1.55874 3 0.795609 3 0 
C 3 -0.795609 2.683901 -1.55874 2.12132 -2.12132 
C 1.55874 -2.683901 0.795609 -3 0 -3 
C -0.795609 -3 -1.55874 -2.683901 -2.12132 -2.12132 
C -2.683901 -1.55874 -3 -0.795609 -3 0 
C -3 0.795609 -2.683901 1.55874 -2.12132 2.12132 
C -1.55874 2.683901 -0.795609 3 0 3 
z
" style="stroke: #ff00ff; stroke-opacity: 0.1"/>
    </defs>
    <g clip-path="url(#pda269a79ac)">
     <use xlink:href="#mba358eb714" x="75.312273" y="373.529235" style="fill: #ff00ff; fill-opacity: 0.1; stroke: #ff00ff; stroke-opacity: 0.1"/>
     <use xlink:href="#mba358eb714" x="105.245422" y="372.08495" style="fill: #ff00ff; fill-opacity: 0.1; stroke: #ff00ff; stroke-opacity: 0.1"/>
     <use xlink:href="#mba358eb714" x="142.66186" y="370.401511" style="fill: #ff00ff; fill-opacity: 0.1; stroke: #ff00ff; stroke-opacity: 0.1"/>
     <use xlink:href="#mba358eb714" x="217.494734" y="366.943944" style="fill: #ff00ff; fill-opacity: 0.1; stroke: #ff00ff; stroke-opacity: 0.1"/>
     <use xlink:href="#mba358eb714" x="441.993356" y="354.382579" style="fill: #ff00ff; fill-opacity: 0.1; stroke: #ff00ff; stroke-opacity: 0.1"/>
     <use xlink:href="#mba358eb714" x="666.491979" y="342.984891" style="fill: #ff00ff; fill-opacity: 0.1; stroke: #ff00ff; stroke-opacity: 0.1"/>
     <use xlink:href="#mba358eb714" x="816.157727" y="335.424393" style="fill: #ff00ff; fill-opacity: 0.1; stroke: #ff00ff; stroke-opacity: 0.1"/>
    </g>
   </g>
   <g id="patch_3">
    <path d="M 38.27 390.04 
L 38.27 26.88 
" style="fill: none; stroke: #000000; stroke-width: 0.8; stroke-linejoin: miter; stroke-linecap: square"/>
   </g>
   <g id="patch_4">
    <path d="M 853.2 390.04 
L 853.2 26.88 
" style="fill: none; stroke: #000000; stroke-width: 0.8; stroke-linejoin: miter; stroke-linecap: square"/>
   </g>
   <g id="patch_5">
    <path d="M 38.27 390.04 
L 853.2 390.04 
" style="fill: none; stroke: #000000; stroke-width: 0.8; stroke-linejoin: miter; stroke-linecap: square"/>
   </g>
   <g id="patch_6">
    <path d="M 38.27 26.88 
L 853.2 26.88 
" style="fill: none; stroke: #000000; stroke-width: 0.8; stroke-linejoin: miter; stroke-linecap: square"/>
   </g>
   <g id="text_17">
    <!-- Files handle timing comparison -->
    <g transform="translate(352.222188 20.88) scale(0.12 -0.12)">
     <defs>
      <path id="DejaVuSans-68" d="M 3513 2113 
L 3513 0 
L 2938 0 
L 2938 2094 
Q 2938 2591 2744 2837 
Q 2550 3084 2163 3084 
Q 1697 3084 1428 2787 
Q 1159 2491 1159 1978 
L 1159 0 
L 581 0 
L 581 4863 
L 1159 4863 
L 1159 2956 
Q 1366 3272 1645 3428 
Q 1925 3584 2291 3584 
Q 2894 3584 3203 3211 
Q 3513 2838 3513 2113 
z
" transform="scale(0.015625)"/>
      <path id="DejaVuSans-61" d="M 2194 1759 
Q 1497 1759 1228 1600 
Q 959 1441 959 1056 
Q 959 750 1161 570 
Q 1363 391 1709 391 
Q 2188 391 2477 730 
Q 2766 1069 2766 1631 
L 2766 1759 
L 2194 1759 
z
M 3341 1997 
L 3341 0 
L 2766 0 
L 2766 531 
Q 2569 213 2275 61 
Q 1981 -91 1556 -91 
Q 1019 -91 701 211 
Q 384 513 384 1019 
Q 384 1609 779 1909 
Q 1175 2209 1959 2209 
L 2766 2209 
L 2766 2266 
Q 2766 2663 2505 2880 
Q 2244 3097 1772 3097 
Q 1472 3097 1187 3025 
Q 903 2953 641 2809 
L 641 3341 
Q 956 3463 1253 3523 
Q 1550 3584 1831 3584 
Q 2591 3584 2966 3190 
Q 3341 2797 3341 1997 
z
" transform="scale(0.015625)"/>
      <path id="DejaVuSans-67" d="M 2906 1791 
Q 2906 2416 2648 2759 
Q 2391 3103 1925 3103 
Q 1463 3103 1205 2759 
Q 947 2416 947 1791 
Q 947 1169 1205 825 
Q 1463 481 1925 481 
Q 2391 481 2648 825 
Q 2906 1169 2906 1791 
z
M 3481 434 
Q 3481 -459 3084 -895 
Q 2688 -1331 1869 -1331 
Q 1566 -1331 1297 -1286 
Q 1028 -1241 775 -1147 
L 775 -588 
Q 1028 -725 1275 -790 
Q 1522 -856 1778 -856 
Q 2344 -856 2625 -561 
Q 2906 -266 2906 331 
L 2906 616 
Q 2728 306 2450 153 
Q 2172 0 1784 0 
Q 1141 0 747 490 
Q 353 981 353 1791 
Q 353 2603 747 3093 
Q 1141 3584 1784 3584 
Q 2172 3584 2450 3431 
Q 2728 3278 2906 2969 
L 2906 3500 
L 3481 3500 
L 3481 434 
z
" transform="scale(0.015625)"/>
      <path id="DejaVuSans-70" d="M 1159 525 
L 1159 -1331 
L 581 -1331 
L 581 3500 
L 1159 3500 
L 1159 2969 
Q 1341 3281 1617 3432 
Q 1894 3584 2278 3584 
Q 2916 3584 3314 3078 
Q 3713 2572 3713 1747 
Q 3713 922 3314 415 
Q 2916 -91 2278 -91 
Q 1894 -91 1617 61 
Q 1341 213 1159 525 
z
M 3116 1747 
Q 3116 2381 2855 2742 
Q 2594 3103 2138 3103 
Q 1681 3103 1420 2742 
Q 1159 2381 1159 1747 
Q 1159 1113 1420 752 
Q 1681 391 2138 391 
Q 2594 391 2855 752 
Q 3116 1113 3116 1747 
z
" transform="scale(0.015625)"/>
      <path id="DejaVuSans-72" d="M 2631 2963 
Q 2534 3019 2420 3045 
Q 2306 3072 2169 3072 
Q 1681 3072 1420 2755 
Q 1159 2438 1159 1844 
L 1159 0 
L 581 0 
L 581 3500 
L 1159 3500 
L 1159 2956 
Q 1341 3275 1631 3429 
Q 1922 3584 2338 3584 
Q 2397 3584 2469 3576 
Q 2541 3569 2628 3553 
L 2631 2963 
z
" transform="scale(0.015625)"/>
     </defs>
     <use xlink:href="#DejaVuSans-46"/>
     <use xlink:href="#DejaVuSans-69" transform="translate(50.269531 0)"/>
     <use xlink:href="#DejaVuSans-6c" transform="translate(78.052734 0)"/>
     <use xlink:href="#DejaVuSans-65" transform="translate(105.835938 0)"/>
     <use xlink:href="#DejaVuSans-73" transform="translate(167.359375 0)"/>
     <use xlink:href="#DejaVuSans-20" transform="translate(219.458984 0)"/>
     <use xlink:href="#DejaVuSans-68" transform="translate(251.246094 0)"/>
     <use xlink:href="#DejaVuSans-61" transform="translate(314.625 0)"/>
     <use xlink:href="#DejaVuSans-6e" transform="translate(375.904297 0)"/>
     <use xlink:href="#DejaVuSans-64" transform="translate(439.283203 0)"/>
     <use xlink:href="#DejaVuSans-6c" transform="translate(502.759766 0)"/>
     <use xlink:href="#DejaVuSans-65" transform="translate(530.542969 0)"/>
     <use xlink:href="#DejaVuSans-20" transform="translate(592.066406 0)"/>
     <use xlink:href="#DejaVuSans-74" transform="translate(623.853516 0)"/>
     <use xlink:href="#DejaVuSans-69" transform="translate(663.0625 0)"/>
     <use xlink:href="#DejaVuSans-6d" transform="translate(690.845703 0)"/>
     <use xlink:href="#DejaVuSans-69" transform="translate(788.257812 0)"/>
     <use xlink:href="#DejaVuSans-6e" transform="translate(816.041016 0)"/>
     <use xlink:href="#DejaVuSans-67" transform="translate(879.419922 0)"/>
     <use xlink:href="#DejaVuSans-20" transform="translate(942.896484 0)"/>
     <use xlink:href="#DejaVuSans-63" transform="translate(974.683594 0)"/>
     <use xlink:href="#DejaVuSans-6f" transform="translate(1029.664062 0)"/>
     <use xlink:href="#DejaVuSans-6d" transform="translate(1090.845703 0)"/>
     <use xlink:href="#DejaVuSans-70" transform="translate(1188.257812 0)"/>
     <use xlink:href="#DejaVuSans-61" transform="translate(1251.734375 0)"/>
     <use xlink:href="#DejaVuSans-72" transform="translate(1313.013672 0)"/>
     <use xlink:href="#DejaVuSans-69" transform="translate(1354.126953 0)"/>
     <use xlink:href="#DejaVuSans-73" transform="translate(1381.910156 0)"/>
     <use xlink:href="#DejaVuSans-6f" transform="translate(1434.009766 0)"/>
     <use xlink:href="#DejaVuSans-6e" transform="translate(1495.191406 0)"/>
    </g>
   </g>
   <g id="legend_1">
    <g id="patch_7">
     <path d="M 45.27 137.626875 
L 150.310625 137.626875 
Q 152.310625 137.626875 152.310625 135.626875 
L 152.310625 33.88 
Q 152.310625 31.88 150.310625 31.88 
L 45.27 31.88 
Q 43.27 31.88 43.27 33.88 
L 43.27 135.626875 
Q 43.27 137.626875 45.27 137.626875 
z
" style="fill: #ffffff; opacity: 0.8; stroke: #cccccc; stroke-linejoin: miter"/>
    </g>
    <g id="line2d_36">
     <path d="M 47.27 39.978437 
L 57.27 39.978437 
L 67.27 39.978437 
" style="fill: none; stroke: #ff0000; stroke-width: 1.5; stroke-linecap: square"/>
     <g>
      <use xlink:href="#mc0931a4a4c" x="57.27" y="39.978437" style="fill: #ff0000; stroke: #ff0000"/>
     </g>
    </g>
    <g id="text_18">
     <!-- imohash T=1 -->
     <g transform="translate(75.27 43.478437) scale(0.1 -0.1)">
      <defs>
       <path id="DejaVuSans-54" d="M -19 4666 
L 3928 4666 
L 3928 4134 
L 2272 4134 
L 2272 0 
L 1638 0 
L 1638 4134 
L -19 4134 
L -19 4666 
z
" transform="scale(0.015625)"/>
       <path id="DejaVuSans-3d" d="M 678 2906 
L 4684 2906 
L 4684 2381 
L 678 2381 
L 678 2906 
z
M 678 1631 
L 4684 1631 
L 4684 1100 
L 678 1100 
L 678 1631 
z
" transform="scale(0.015625)"/>
      </defs>
      <use xlink:href="#DejaVuSans-69"/>
      <use xlink:href="#DejaVuSans-6d" transform="translate(27.783203 0)"/>
      <use xlink:href="#DejaVuSans-6f" transform="translate(125.195312 0)"/>
      <use xlink:href="#DejaVuSans-68" transform="translate(186.376953 0)"/>
      <use xlink:href="#DejaVuSans-61" transform="translate(249.755859 0)"/>
      <use xlink:href="#DejaVuSans-73" transform="translate(311.035156 0)"/>
      <use xlink:href="#DejaVuSans-68" transform="translate(363.134766 0)"/>
      <use xlink:href="#DejaVuSans-20" transform="translate(426.513672 0)"/>
      <use xlink:href="#DejaVuSans-54" transform="translate(458.300781 0)"/>
      <use xlink:href="#DejaVuSans-3d" transform="translate(519.384766 0)"/>
      <use xlink:href="#DejaVuSans-31" transform="translate(603.173828 0)"/>
     </g>
    </g>
    <g id="line2d_37">
     <path d="M 47.27 54.656563 
L 57.27 54.656563 
L 67.27 54.656563 
" style="fill: none; stroke: #00aa00; stroke-width: 1.5; stroke-linecap: square"/>
     <g>
      <use xlink:href="#m6dfd544a6b" x="57.27" y="54.656563" style="fill: #00aa00; stroke: #00aa00"/>
     </g>
    </g>
    <g id="text_19">
     <!-- imohash T=2 -->
     <g transform="translate(75.27 58.156563) scale(0.1 -0.1)">
      <use xlink:href="#DejaVuSans-69"/>
      <use xlink:href="#DejaVuSans-6d" transform="translate(27.783203 0)"/>
      <use xlink:href="#DejaVuSans-6f" transform="translate(125.195312 0)"/>
      <use xlink:href="#DejaVuSans-68" transform="translate(186.376953 0)"/>
      <use xlink:href="#DejaVuSans-61" transform="translate(249.755859 0)"/>
      <use xlink:href="#DejaVuSans-73" transform="translate(311.035156 0)"/>
      <use xlink:href="#DejaVuSans-68" transform="translate(363.134766 0)"/>
      <use xlink:href="#DejaVuSans-20" transform="translate(426.513672 0)"/>
      <use xlink:href="#DejaVuSans-54" transform="translate(458.300781 0)"/>
      <use xlink:href="#DejaVuSans-3d" transform="translate(519.384766 0)"/>
      <use xlink:href="#DejaVuSans-32" transform="translate(603.173828 0)"/>
     </g>
    </g>
    <g id="line2d_38">
     <path d="M 47.27 69.334687 
L 57.27 69.334687 
L 67.27 69.334687 
" style="fill: none; stroke: #0000ff; stroke-width: 1.5; stroke-linecap: square"/>
     <g>
      <use xlink:href="#m5f9ccf3123" x="57.27" y="69.334687" style="fill: #0000ff; stroke: #0000ff"/>
     </g>
    </g>
    <g id="text_20">
     <!-- imohash T=4 -->
     <g transform="translate(75.27 72.834687) scale(0.1 -0.1)">
      <use xlink:href="#DejaVuSans-69"/>
      <use xlink:href="#DejaVuSans-6d" transform="translate(27.783203 0)"/>
      <use xlink:href="#DejaVuSans-6f" transform="translate(125.195312 0)"/>
      <use xlink:href="#DejaVuSans-68" transform="translate(186.376953 0)"/>
      <use xlink:href="#DejaVuSans-61" transform="translate(249.755859 0)"/>
      <use xlink:href="#DejaVuSans-73" transform="translate(311.035156 0)"/>
      <use xlink:href="#DejaVuSans-68" transform="translate(363.134766 0)"/>
      <use xlink:href="#DejaVuSans-20" transform="translate(426.513672 0)"/>
      <use xlink:href="#DejaVuSans-54" transform="translate(458.300781 0)"/>
      <use xlink:href="#DejaVuSans-3d" transform="translate(519.384766 0)"/>
      <use xlink:href="#DejaVuSans-34" transform="translate(603.173828 0)"/>
     </g>
    </g>
    <g id="line2d_39">
     <path d="M 47.27 84.012812 
L 57.27 84.012812 
L 67.27 84.012812 
" style="fill: none; stroke: #ffa500; stroke-width: 1.5; stroke-linecap: square"/>
     <g>
      <use xlink:href="#m74834e97d1" x="57.27" y="84.012812" style="fill: #ffa500; stroke: #ffa500"/>
     </g>
    </g>
    <g id="text_21">
     <!-- imohash T=8 -->
     <g transform="translate(75.27 87.512812) scale(0.1 -0.1)">
      <use xlink:href="#DejaVuSans-69"/>
      <use xlink:href="#DejaVuSans-6d" transform="translate(27.783203 0)"/>
      <use xlink:href="#DejaVuSans-6f" transform="translate(125.195312 0)"/>
      <use xlink:href="#DejaVuSans-68" transform="translate(186.376953 0)"/>
      <use xlink:href="#DejaVuSans-61" transform="translate(249.755859 0)"/>
      <use xlink:href="#DejaVuSans-73" transform="translate(311.035156 0)"/>
      <use xlink:href="#DejaVuSans-68" transform="translate(363.134766 0)"/>
      <use xlink:href="#DejaVuSans-20" transform="translate(426.513672 0)"/>
      <use xlink:href="#DejaVuSans-54" transform="translate(458.300781 0)"/>
      <use xlink:href="#DejaVuSans-3d" transform="translate(519.384766 0)"/>
      <use xlink:href="#DejaVuSans-38" transform="translate(603.173828 0)"/>
     </g>
    </g>
    <g id="line2d_40">
     <path d="M 47.27 98.690938 
L 57.27 98.690938 
L 67.27 98.690938 
" style="fill: none; stroke: #800080; stroke-opacity: 0.1; stroke-width: 1.5; stroke-linecap: square"/>
     <g>
      <use xlink:href="#ma0f5e9ada9" x="57.27" y="98.690938" style="fill: #800080; fill-opacity: 0.1; stroke: #800080; stroke-opacity: 0.1"/>
     </g>
    </g>
    <g id="text_22">
     <!-- imohash T=16 -->
     <g transform="translate(75.27 102.190938) scale(0.1 -0.1)">
      <use xlink:href="#DejaVuSans-69"/>
      <use xlink:href="#DejaVuSans-6d" transform="translate(27.783203 0)"/>
      <use xlink:href="#DejaVuSans-6f" transform="translate(125.195312 0)"/>
      <use xlink:href="#DejaVuSans-68" transform="translate(186.376953 0)"/>
      <use xlink:href="#DejaVuSans-61" transform="translate(249.755859 0)"/>
      <use xlink:href="#DejaVuSans-73" transform="translate(311.035156 0)"/>
      <use xlink:href="#DejaVuSans-68" transform="translate(363.134766 0)"/>
      <use xlink:href="#DejaVuSans-20" transform="translate(426.513672 0)"/>
      <use xlink:href="#DejaVuSans-54" transform="translate(458.300781 0)"/>
      <use xlink:href="#DejaVuSans-3d" transform="translate(519.384766 0)"/>
      <use xlink:href="#DejaVuSans-31" transform="translate(603.173828 0)"/>
      <use xlink:href="#DejaVuSans-36" transform="translate(666.796875 0)"/>
     </g>
    </g>
    <g id="line2d_41">
     <path d="M 47.27 113.369062 
L 57.27 113.369062 
L 67.27 113.369062 
" style="fill: none; stroke: #008080; stroke-opacity: 0.1; stroke-width: 1.5; stroke-linecap: square"/>
     <g>
      <use xlink:href="#m0d79c271c6" x="57.27" y="113.369062" style="fill: #008080; fill-opacity: 0.1; stroke: #008080; stroke-opacity: 0.1"/>
     </g>
    </g>
    <g id="text_23">
     <!-- imohash T=32 -->
     <g transform="translate(75.27 116.869062) scale(0.1 -0.1)">
      <use xlink:href="#DejaVuSans-69"/>
      <use xlink:href="#DejaVuSans-6d" transform="translate(27.783203 0)"/>
      <use xlink:href="#DejaVuSans-6f" transform="translate(125.195312 0)"/>
      <use xlink:href="#DejaVuSans-68" transform="translate(186.376953 0)"/>
      <use xlink:href="#DejaVuSans-61" transform="translate(249.755859 0)"/>
      <use xlink:href="#DejaVuSans-73" transform="translate(311.035156 0)"/>
      <use xlink:href="#DejaVuSans-68" transform="translate(363.134766 0)"/>
      <use xlink:href="#DejaVuSans-20" transform="translate(426.513672 0)"/>
      <use xlink:href="#DejaVuSans-54" transform="translate(458.300781 0)"/>
      <use xlink:href="#DejaVuSans-3d" transform="translate(519.384766 0)"/>
      <use xlink:href="#DejaVuSans-33" transform="translate(603.173828 0)"/>
      <use xlink:href="#DejaVuSans-32" transform="translate(666.796875 0)"/>
     </g>
    </g>
    <g id="line2d_42">
     <path d="M 47.27 128.047187 
L 57.27 128.047187 
L 67.27 128.047187 
" style="fill: none; stroke: #ff00ff; stroke-opacity: 0.1; stroke-width: 1.5; stroke-linecap: square"/>
     <g>
      <use xlink:href="#mba358eb714" x="57.27" y="128.047187" style="fill: #ff00ff; fill-opacity: 0.1; stroke: #ff00ff; stroke-opacity: 0.1"/>
     </g>
    </g>
    <g id="text_24">
     <!-- imohash T=64 -->
     <g transform="translate(75.27 131.547187) scale(0.1 -0.1)">
      <use xlink:href="#DejaVuSans-69"/>
      <use xlink:href="#DejaVuSans-6d" transform="translate(27.783203 0)"/>
      <use xlink:href="#DejaVuSans-6f" transform="translate(125.195312 0)"/>
      <use xlink:href="#DejaVuSans-68" transform="translate(186.376953 0)"/>
      <use xlink:href="#DejaVuSans-61" transform="translate(249.755859 0)"/>
      <use xlink:href="#DejaVuSans-73" transform="translate(311.035156 0)"/>
      <use xlink:href="#DejaVuSans-68" transform="translate(363.134766 0)"/>
      <use xlink:href="#DejaVuSans-20" transform="translate(426.513672 0)"/>
      <use xlink:href="#DejaVuSans-54" transform="translate(458.300781 0)"/>
      <use xlink:href="#DejaVuSans-3d" transform="translate(519.384766 0)"/>
      <use xlink:href="#DejaVuSans-36" transform="translate(603.173828 0)"/>
      <use xlink:href="#DejaVuSans-34" transform="translate(666.796875 0)"/>
     </g>
    </g>
   </g>
  </g>
 </g>
 <defs>
  <clipPath id="pda269a79ac">
   <rect x="38.27" y="26.88" width="814.93" height="363.16"/>
  </clipPath>
 </defs>
</svg>
