<?xml version="1.0" encoding="utf-8" standalone="no"?>
<!DOCTYPE svg PUBLIC "-//W3C//DTD SVG 1.1//EN"
  "http://www.w3.org/Graphics/SVG/1.1/DTD/svg11.dtd">
<svg xmlns:xlink="http://www.w3.org/1999/xlink" width="864pt" height="432pt" viewBox="0 0 864 432" xmlns="http://www.w3.org/2000/svg" version="1.1">
 <metadata>
  <rdf:RDF xmlns:dc="http://purl.org/dc/elements/1.1/" xmlns:cc="http://creativecommons.org/ns#" xmlns:rdf="http://www.w3.org/1999/02/22-rdf-syntax-ns#">
   <cc:Work>
    <dc:type rdf:resource="http://purl.org/dc/dcmitype/StillImage"/>
    <dc:date>2025-05-01T13:02:26.143365</dc:date>
    <dc:format>image/svg+xml</dc:format>
    <dc:creator>
     <cc:Agent>
      <dc:title>Matplotlib v3.10.1, https://matplotlib.org/</dc:title>
     </cc:Agent>
    </dc:creator>
   </cc:Work>
  </rdf:RDF>
 </metadata>
 <defs>
  <style type="text/css">*{stroke-linejoin: round; stroke-linecap: butt}</style>
 </defs>
 <g id="figure_1">
  <g id="patch_1">
   <path d="M 0 432 
L 864 432 
L 864 0 
L 0 0 
z
" style="fill: #ffffff"/>
  </g>
  <g id="axes_1">
   <g id="patch_2">
    <path d="M 54.02 390.04 
L 853.2 390.04 
L 853.2 26.88 
L 54.02 26.88 
z
" style="fill: #ffffff"/>
   </g>
   <g id="matplotlib.axis_1">
    <g id="xtick_1">
     <g id="line2d_1">
      <path d="M 83.007704 390.04 
L 83.007704 26.88 
" clip-path="url(#pedbc43f081)" style="fill: none; stroke-dasharray: 2.96,1.28; stroke-dashoffset: 0; stroke: #b0b0b0; stroke-opacity: 0.7; stroke-width: 0.8"/>
     </g>
     <g id="line2d_2">
      <defs>
       <path id="m33fda00c63" d="M 0 0 
L 0 3.5 
" style="stroke: #000000; stroke-width: 0.8"/>
      </defs>
      <g>
       <use xlink:href="#m33fda00c63" x="83.007704" y="390.04" style="stroke: #000000; stroke-width: 0.8"/>
      </g>
     </g>
     <g id="text_1">
      <!-- 0 -->
      <g transform="translate(79.826454 404.638438) scale(0.1 -0.1)">
       <defs>
        <path id="DejaVuSans-30" d="M 2034 4250 
Q 1547 4250 1301 3770 
Q 1056 3291 1056 2328 
Q 1056 1369 1301 889 
Q 1547 409 2034 409 
Q 2525 409 2770 889 
Q 3016 1369 3016 2328 
Q 3016 3291 2770 3770 
Q 2525 4250 2034 4250 
z
M 2034 4750 
Q 2819 4750 3233 4129 
Q 3647 3509 3647 2328 
Q 3647 1150 3233 529 
Q 2819 -91 2034 -91 
Q 1250 -91 836 529 
Q 422 1150 422 2328 
Q 422 3509 836 4129 
Q 1250 4750 2034 4750 
z
" transform="scale(0.015625)"/>
       </defs>
       <use xlink:href="#DejaVuSans-30"/>
      </g>
     </g>
    </g>
    <g id="xtick_2">
     <g id="line2d_3">
      <path d="M 229.780891 390.04 
L 229.780891 26.88 
" clip-path="url(#pedbc43f081)" style="fill: none; stroke-dasharray: 2.96,1.28; stroke-dashoffset: 0; stroke: #b0b0b0; stroke-opacity: 0.7; stroke-width: 0.8"/>
     </g>
     <g id="line2d_4">
      <g>
       <use xlink:href="#m33fda00c63" x="229.780891" y="390.04" style="stroke: #000000; stroke-width: 0.8"/>
      </g>
     </g>
     <g id="text_2">
      <!-- 2000 -->
      <g transform="translate(217.055891 404.638438) scale(0.1 -0.1)">
       <defs>
        <path id="DejaVuSans-32" d="M 1228 531 
L 3431 531 
L 3431 0 
L 469 0 
L 469 531 
Q 828 903 1448 1529 
Q 2069 2156 2228 2338 
Q 2531 2678 2651 2914 
Q 2772 3150 2772 3378 
Q 2772 3750 2511 3984 
Q 2250 4219 1831 4219 
Q 1534 4219 1204 4116 
Q 875 4013 500 3803 
L 500 4441 
Q 881 4594 1212 4672 
Q 1544 4750 1819 4750 
Q 2544 4750 2975 4387 
Q 3406 4025 3406 3419 
Q 3406 3131 3298 2873 
Q 3191 2616 2906 2266 
Q 2828 2175 2409 1742 
Q 1991 1309 1228 531 
z
" transform="scale(0.015625)"/>
       </defs>
       <use xlink:href="#DejaVuSans-32"/>
       <use xlink:href="#DejaVuSans-30" transform="translate(63.623047 0)"/>
       <use xlink:href="#DejaVuSans-30" transform="translate(127.246094 0)"/>
       <use xlink:href="#DejaVuSans-30" transform="translate(190.869141 0)"/>
      </g>
     </g>
    </g>
    <g id="xtick_3">
     <g id="line2d_5">
      <path d="M 376.554077 390.04 
L 376.554077 26.88 
" clip-path="url(#pedbc43f081)" style="fill: none; stroke-dasharray: 2.96,1.28; stroke-dashoffset: 0; stroke: #b0b0b0; stroke-opacity: 0.7; stroke-width: 0.8"/>
     </g>
     <g id="line2d_6">
      <g>
       <use xlink:href="#m33fda00c63" x="376.554077" y="390.04" style="stroke: #000000; stroke-width: 0.8"/>
      </g>
     </g>
     <g id="text_3">
      <!-- 4000 -->
      <g transform="translate(363.829077 404.638438) scale(0.1 -0.1)">
       <defs>
        <path id="DejaVuSans-34" d="M 2419 4116 
L 825 1625 
L 2419 1625 
L 2419 4116 
z
M 2253 4666 
L 3047 4666 
L 3047 1625 
L 3713 1625 
L 3713 1100 
L 3047 1100 
L 3047 0 
L 2419 0 
L 2419 1100 
L 313 1100 
L 313 1709 
L 2253 4666 
z
" transform="scale(0.015625)"/>
       </defs>
       <use xlink:href="#DejaVuSans-34"/>
       <use xlink:href="#DejaVuSans-30" transform="translate(63.623047 0)"/>
       <use xlink:href="#DejaVuSans-30" transform="translate(127.246094 0)"/>
       <use xlink:href="#DejaVuSans-30" transform="translate(190.869141 0)"/>
      </g>
     </g>
    </g>
    <g id="xtick_4">
     <g id="line2d_7">
      <path d="M 523.327264 390.04 
L 523.327264 26.88 
" clip-path="url(#pedbc43f081)" style="fill: none; stroke-dasharray: 2.96,1.28; stroke-dashoffset: 0; stroke: #b0b0b0; stroke-opacity: 0.7; stroke-width: 0.8"/>
     </g>
     <g id="line2d_8">
      <g>
       <use xlink:href="#m33fda00c63" x="523.327264" y="390.04" style="stroke: #000000; stroke-width: 0.8"/>
      </g>
     </g>
     <g id="text_4">
      <!-- 6000 -->
      <g transform="translate(510.602264 404.638438) scale(0.1 -0.1)">
       <defs>
        <path id="DejaVuSans-36" d="M 2113 2584 
Q 1688 2584 1439 2293 
Q 1191 2003 1191 1497 
Q 1191 994 1439 701 
Q 1688 409 2113 409 
Q 2538 409 2786 701 
Q 3034 994 3034 1497 
Q 3034 2003 2786 2293 
Q 2538 2584 2113 2584 
z
M 3366 4563 
L 3366 3988 
Q 3128 4100 2886 4159 
Q 2644 4219 2406 4219 
Q 1781 4219 1451 3797 
Q 1122 3375 1075 2522 
Q 1259 2794 1537 2939 
Q 1816 3084 2150 3084 
Q 2853 3084 3261 2657 
Q 3669 2231 3669 1497 
Q 3669 778 3244 343 
Q 2819 -91 2113 -91 
Q 1303 -91 875 529 
Q 447 1150 447 2328 
Q 447 3434 972 4092 
Q 1497 4750 2381 4750 
Q 2619 4750 2861 4703 
Q 3103 4656 3366 4563 
z
" transform="scale(0.015625)"/>
       </defs>
       <use xlink:href="#DejaVuSans-36"/>
       <use xlink:href="#DejaVuSans-30" transform="translate(63.623047 0)"/>
       <use xlink:href="#DejaVuSans-30" transform="translate(127.246094 0)"/>
       <use xlink:href="#DejaVuSans-30" transform="translate(190.869141 0)"/>
      </g>
     </g>
    </g>
    <g id="xtick_5">
     <g id="line2d_9">
      <path d="M 670.10045 390.04 
L 670.10045 26.88 
" clip-path="url(#pedbc43f081)" style="fill: none; stroke-dasharray: 2.96,1.28; stroke-dashoffset: 0; stroke: #b0b0b0; stroke-opacity: 0.7; stroke-width: 0.8"/>
     </g>
     <g id="line2d_10">
      <g>
       <use xlink:href="#m33fda00c63" x="670.10045" y="390.04" style="stroke: #000000; stroke-width: 0.8"/>
      </g>
     </g>
     <g id="text_5">
      <!-- 8000 -->
      <g transform="translate(657.37545 404.638438) scale(0.1 -0.1)">
       <defs>
        <path id="DejaVuSans-38" d="M 2034 2216 
Q 1584 2216 1326 1975 
Q 1069 1734 1069 1313 
Q 1069 891 1326 650 
Q 1584 409 2034 409 
Q 2484 409 2743 651 
Q 3003 894 3003 1313 
Q 3003 1734 2745 1975 
Q 2488 2216 2034 2216 
z
M 1403 2484 
Q 997 2584 770 2862 
Q 544 3141 544 3541 
Q 544 4100 942 4425 
Q 1341 4750 2034 4750 
Q 2731 4750 3128 4425 
Q 3525 4100 3525 3541 
Q 3525 3141 3298 2862 
Q 3072 2584 2669 2484 
Q 3125 2378 3379 2068 
Q 3634 1759 3634 1313 
Q 3634 634 3220 271 
Q 2806 -91 2034 -91 
Q 1263 -91 848 271 
Q 434 634 434 1313 
Q 434 1759 690 2068 
Q 947 2378 1403 2484 
z
M 1172 3481 
Q 1172 3119 1398 2916 
Q 1625 2713 2034 2713 
Q 2441 2713 2670 2916 
Q 2900 3119 2900 3481 
Q 2900 3844 2670 4047 
Q 2441 4250 2034 4250 
Q 1625 4250 1398 4047 
Q 1172 3844 1172 3481 
z
" transform="scale(0.015625)"/>
       </defs>
       <use xlink:href="#DejaVuSans-38"/>
       <use xlink:href="#DejaVuSans-30" transform="translate(63.623047 0)"/>
       <use xlink:href="#DejaVuSans-30" transform="translate(127.246094 0)"/>
       <use xlink:href="#DejaVuSans-30" transform="translate(190.869141 0)"/>
      </g>
     </g>
    </g>
    <g id="xtick_6">
     <g id="line2d_11">
      <path d="M 816.873636 390.04 
L 816.873636 26.88 
" clip-path="url(#pedbc43f081)" style="fill: none; stroke-dasharray: 2.96,1.28; stroke-dashoffset: 0; stroke: #b0b0b0; stroke-opacity: 0.7; stroke-width: 0.8"/>
     </g>
     <g id="line2d_12">
      <g>
       <use xlink:href="#m33fda00c63" x="816.873636" y="390.04" style="stroke: #000000; stroke-width: 0.8"/>
      </g>
     </g>
     <g id="text_6">
      <!-- 10000 -->
      <g transform="translate(800.967386 404.638438) scale(0.1 -0.1)">
       <defs>
        <path id="DejaVuSans-31" d="M 794 531 
L 1825 531 
L 1825 4091 
L 703 3866 
L 703 4441 
L 1819 4666 
L 2450 4666 
L 2450 531 
L 3481 531 
L 3481 0 
L 794 0 
L 794 531 
z
" transform="scale(0.015625)"/>
       </defs>
       <use xlink:href="#DejaVuSans-31"/>
       <use xlink:href="#DejaVuSans-30" transform="translate(63.623047 0)"/>
       <use xlink:href="#DejaVuSans-30" transform="translate(127.246094 0)"/>
       <use xlink:href="#DejaVuSans-30" transform="translate(190.869141 0)"/>
       <use xlink:href="#DejaVuSans-30" transform="translate(254.492188 0)"/>
      </g>
     </g>
    </g>
    <g id="text_7">
     <!-- Files count -->
     <g transform="translate(426.942031 418.316562) scale(0.1 -0.1)">
      <defs>
       <path id="DejaVuSans-46" d="M 628 4666 
L 3309 4666 
L 3309 4134 
L 1259 4134 
L 1259 2759 
L 3109 2759 
L 3109 2228 
L 1259 2228 
L 1259 0 
L 628 0 
L 628 4666 
z
" transform="scale(0.015625)"/>
       <path id="DejaVuSans-69" d="M 603 3500 
L 1178 3500 
L 1178 0 
L 603 0 
L 603 3500 
z
M 603 4863 
L 1178 4863 
L 1178 4134 
L 603 4134 
L 603 4863 
z
" transform="scale(0.015625)"/>
       <path id="DejaVuSans-6c" d="M 603 4863 
L 1178 4863 
L 1178 0 
L 603 0 
L 603 4863 
z
" transform="scale(0.015625)"/>
       <path id="DejaVuSans-65" d="M 3597 1894 
L 3597 1613 
L 953 1613 
Q 991 1019 1311 708 
Q 1631 397 2203 397 
Q 2534 397 2845 478 
Q 3156 559 3463 722 
L 3463 178 
Q 3153 47 2828 -22 
Q 2503 -91 2169 -91 
Q 1331 -91 842 396 
Q 353 884 353 1716 
Q 353 2575 817 3079 
Q 1281 3584 2069 3584 
Q 2775 3584 3186 3129 
Q 3597 2675 3597 1894 
z
M 3022 2063 
Q 3016 2534 2758 2815 
Q 2500 3097 2075 3097 
Q 1594 3097 1305 2825 
Q 1016 2553 972 2059 
L 3022 2063 
z
" transform="scale(0.015625)"/>
       <path id="DejaVuSans-73" d="M 2834 3397 
L 2834 2853 
Q 2591 2978 2328 3040 
Q 2066 3103 1784 3103 
Q 1356 3103 1142 2972 
Q 928 2841 928 2578 
Q 928 2378 1081 2264 
Q 1234 2150 1697 2047 
L 1894 2003 
Q 2506 1872 2764 1633 
Q 3022 1394 3022 966 
Q 3022 478 2636 193 
Q 2250 -91 1575 -91 
Q 1294 -91 989 -36 
Q 684 19 347 128 
L 347 722 
Q 666 556 975 473 
Q 1284 391 1588 391 
Q 1994 391 2212 530 
Q 2431 669 2431 922 
Q 2431 1156 2273 1281 
Q 2116 1406 1581 1522 
L 1381 1569 
Q 847 1681 609 1914 
Q 372 2147 372 2553 
Q 372 3047 722 3315 
Q 1072 3584 1716 3584 
Q 2034 3584 2315 3537 
Q 2597 3491 2834 3397 
z
" transform="scale(0.015625)"/>
       <path id="DejaVuSans-20" transform="scale(0.015625)"/>
       <path id="DejaVuSans-63" d="M 3122 3366 
L 3122 2828 
Q 2878 2963 2633 3030 
Q 2388 3097 2138 3097 
Q 1578 3097 1268 2742 
Q 959 2388 959 1747 
Q 959 1106 1268 751 
Q 1578 397 2138 397 
Q 2388 397 2633 464 
Q 2878 531 3122 666 
L 3122 134 
Q 2881 22 2623 -34 
Q 2366 -91 2075 -91 
Q 1284 -91 818 406 
Q 353 903 353 1747 
Q 353 2603 823 3093 
Q 1294 3584 2113 3584 
Q 2378 3584 2631 3529 
Q 2884 3475 3122 3366 
z
" transform="scale(0.015625)"/>
       <path id="DejaVuSans-6f" d="M 1959 3097 
Q 1497 3097 1228 2736 
Q 959 2375 959 1747 
Q 959 1119 1226 758 
Q 1494 397 1959 397 
Q 2419 397 2687 759 
Q 2956 1122 2956 1747 
Q 2956 2369 2687 2733 
Q 2419 3097 1959 3097 
z
M 1959 3584 
Q 2709 3584 3137 3096 
Q 3566 2609 3566 1747 
Q 3566 888 3137 398 
Q 2709 -91 1959 -91 
Q 1206 -91 779 398 
Q 353 888 353 1747 
Q 353 2609 779 3096 
Q 1206 3584 1959 3584 
z
" transform="scale(0.015625)"/>
       <path id="DejaVuSans-75" d="M 544 1381 
L 544 3500 
L 1119 3500 
L 1119 1403 
Q 1119 906 1312 657 
Q 1506 409 1894 409 
Q 2359 409 2629 706 
Q 2900 1003 2900 1516 
L 2900 3500 
L 3475 3500 
L 3475 0 
L 2900 0 
L 2900 538 
Q 2691 219 2414 64 
Q 2138 -91 1772 -91 
Q 1169 -91 856 284 
Q 544 659 544 1381 
z
M 1991 3584 
L 1991 3584 
z
" transform="scale(0.015625)"/>
       <path id="DejaVuSans-6e" d="M 3513 2113 
L 3513 0 
L 2938 0 
L 2938 2094 
Q 2938 2591 2744 2837 
Q 2550 3084 2163 3084 
Q 1697 3084 1428 2787 
Q 1159 2491 1159 1978 
L 1159 0 
L 581 0 
L 581 3500 
L 1159 3500 
L 1159 2956 
Q 1366 3272 1645 3428 
Q 1925 3584 2291 3584 
Q 2894 3584 3203 3211 
Q 3513 2838 3513 2113 
z
" transform="scale(0.015625)"/>
       <path id="DejaVuSans-74" d="M 1172 4494 
L 1172 3500 
L 2356 3500 
L 2356 3053 
L 1172 3053 
L 1172 1153 
Q 1172 725 1289 603 
Q 1406 481 1766 481 
L 2356 481 
L 2356 0 
L 1766 0 
Q 1100 0 847 248 
Q 594 497 594 1153 
L 594 3053 
L 172 3053 
L 172 3500 
L 594 3500 
L 594 4494 
L 1172 4494 
z
" transform="scale(0.015625)"/>
      </defs>
      <use xlink:href="#DejaVuSans-46"/>
      <use xlink:href="#DejaVuSans-69" transform="translate(50.269531 0)"/>
      <use xlink:href="#DejaVuSans-6c" transform="translate(78.052734 0)"/>
      <use xlink:href="#DejaVuSans-65" transform="translate(105.835938 0)"/>
      <use xlink:href="#DejaVuSans-73" transform="translate(167.359375 0)"/>
      <use xlink:href="#DejaVuSans-20" transform="translate(219.458984 0)"/>
      <use xlink:href="#DejaVuSans-63" transform="translate(251.246094 0)"/>
      <use xlink:href="#DejaVuSans-6f" transform="translate(306.226562 0)"/>
      <use xlink:href="#DejaVuSans-75" transform="translate(367.408203 0)"/>
      <use xlink:href="#DejaVuSans-6e" transform="translate(430.787109 0)"/>
      <use xlink:href="#DejaVuSans-74" transform="translate(494.166016 0)"/>
     </g>
    </g>
   </g>
   <g id="matplotlib.axis_2">
    <g id="ytick_1">
     <g id="line2d_13">
      <path d="M 54.02 388.424432 
L 853.2 388.424432 
" clip-path="url(#pedbc43f081)" style="fill: none; stroke-dasharray: 2.96,1.28; stroke-dashoffset: 0; stroke: #b0b0b0; stroke-opacity: 0.7; stroke-width: 0.8"/>
     </g>
     <g id="line2d_14">
      <defs>
       <path id="m7d1f025cbf" d="M 0 0 
L -3.5 0 
" style="stroke: #000000; stroke-width: 0.8"/>
      </defs>
      <g>
       <use xlink:href="#m7d1f025cbf" x="54.02" y="388.424432" style="stroke: #000000; stroke-width: 0.8"/>
      </g>
     </g>
     <g id="text_8">
      <!-- 0.00 -->
      <g transform="translate(24.754375 392.223651) scale(0.1 -0.1)">
       <defs>
        <path id="DejaVuSans-2e" d="M 684 794 
L 1344 794 
L 1344 0 
L 684 0 
L 684 794 
z
" transform="scale(0.015625)"/>
       </defs>
       <use xlink:href="#DejaVuSans-30"/>
       <use xlink:href="#DejaVuSans-2e" transform="translate(63.623047 0)"/>
       <use xlink:href="#DejaVuSans-30" transform="translate(95.410156 0)"/>
       <use xlink:href="#DejaVuSans-30" transform="translate(159.033203 0)"/>
      </g>
     </g>
    </g>
    <g id="ytick_2">
     <g id="line2d_15">
      <path d="M 54.02 338.017582 
L 853.2 338.017582 
" clip-path="url(#pedbc43f081)" style="fill: none; stroke-dasharray: 2.96,1.28; stroke-dashoffset: 0; stroke: #b0b0b0; stroke-opacity: 0.7; stroke-width: 0.8"/>
     </g>
     <g id="line2d_16">
      <g>
       <use xlink:href="#m7d1f025cbf" x="54.02" y="338.017582" style="stroke: #000000; stroke-width: 0.8"/>
      </g>
     </g>
     <g id="text_9">
      <!-- 0.25 -->
      <g transform="translate(24.754375 341.816801) scale(0.1 -0.1)">
       <defs>
        <path id="DejaVuSans-35" d="M 691 4666 
L 3169 4666 
L 3169 4134 
L 1269 4134 
L 1269 2991 
Q 1406 3038 1543 3061 
Q 1681 3084 1819 3084 
Q 2600 3084 3056 2656 
Q 3513 2228 3513 1497 
Q 3513 744 3044 326 
Q 2575 -91 1722 -91 
Q 1428 -91 1123 -41 
Q 819 9 494 109 
L 494 744 
Q 775 591 1075 516 
Q 1375 441 1709 441 
Q 2250 441 2565 725 
Q 2881 1009 2881 1497 
Q 2881 1984 2565 2268 
Q 2250 2553 1709 2553 
Q 1456 2553 1204 2497 
Q 953 2441 691 2322 
L 691 4666 
z
" transform="scale(0.015625)"/>
       </defs>
       <use xlink:href="#DejaVuSans-30"/>
       <use xlink:href="#DejaVuSans-2e" transform="translate(63.623047 0)"/>
       <use xlink:href="#DejaVuSans-32" transform="translate(95.410156 0)"/>
       <use xlink:href="#DejaVuSans-35" transform="translate(159.033203 0)"/>
      </g>
     </g>
    </g>
    <g id="ytick_3">
     <g id="line2d_17">
      <path d="M 54.02 287.610733 
L 853.2 287.610733 
" clip-path="url(#pedbc43f081)" style="fill: none; stroke-dasharray: 2.96,1.28; stroke-dashoffset: 0; stroke: #b0b0b0; stroke-opacity: 0.7; stroke-width: 0.8"/>
     </g>
     <g id="line2d_18">
      <g>
       <use xlink:href="#m7d1f025cbf" x="54.02" y="287.610733" style="stroke: #000000; stroke-width: 0.8"/>
      </g>
     </g>
     <g id="text_10">
      <!-- 0.50 -->
      <g transform="translate(24.754375 291.409951) scale(0.1 -0.1)">
       <use xlink:href="#DejaVuSans-30"/>
       <use xlink:href="#DejaVuSans-2e" transform="translate(63.623047 0)"/>
       <use xlink:href="#DejaVuSans-35" transform="translate(95.410156 0)"/>
       <use xlink:href="#DejaVuSans-30" transform="translate(159.033203 0)"/>
      </g>
     </g>
    </g>
    <g id="ytick_4">
     <g id="line2d_19">
      <path d="M 54.02 237.203883 
L 853.2 237.203883 
" clip-path="url(#pedbc43f081)" style="fill: none; stroke-dasharray: 2.96,1.28; stroke-dashoffset: 0; stroke: #b0b0b0; stroke-opacity: 0.7; stroke-width: 0.8"/>
     </g>
     <g id="line2d_20">
      <g>
       <use xlink:href="#m7d1f025cbf" x="54.02" y="237.203883" style="stroke: #000000; stroke-width: 0.8"/>
      </g>
     </g>
     <g id="text_11">
      <!-- 0.75 -->
      <g transform="translate(24.754375 241.003102) scale(0.1 -0.1)">
       <defs>
        <path id="DejaVuSans-37" d="M 525 4666 
L 3525 4666 
L 3525 4397 
L 1831 0 
L 1172 0 
L 2766 4134 
L 525 4134 
L 525 4666 
z
" transform="scale(0.015625)"/>
       </defs>
       <use xlink:href="#DejaVuSans-30"/>
       <use xlink:href="#DejaVuSans-2e" transform="translate(63.623047 0)"/>
       <use xlink:href="#DejaVuSans-37" transform="translate(95.410156 0)"/>
       <use xlink:href="#DejaVuSans-35" transform="translate(159.033203 0)"/>
      </g>
     </g>
    </g>
    <g id="ytick_5">
     <g id="line2d_21">
      <path d="M 54.02 186.797033 
L 853.2 186.797033 
" clip-path="url(#pedbc43f081)" style="fill: none; stroke-dasharray: 2.96,1.28; stroke-dashoffset: 0; stroke: #b0b0b0; stroke-opacity: 0.7; stroke-width: 0.8"/>
     </g>
     <g id="line2d_22">
      <g>
       <use xlink:href="#m7d1f025cbf" x="54.02" y="186.797033" style="stroke: #000000; stroke-width: 0.8"/>
      </g>
     </g>
     <g id="text_12">
      <!-- 1.00 -->
      <g transform="translate(24.754375 190.596252) scale(0.1 -0.1)">
       <use xlink:href="#DejaVuSans-31"/>
       <use xlink:href="#DejaVuSans-2e" transform="translate(63.623047 0)"/>
       <use xlink:href="#DejaVuSans-30" transform="translate(95.410156 0)"/>
       <use xlink:href="#DejaVuSans-30" transform="translate(159.033203 0)"/>
      </g>
     </g>
    </g>
    <g id="ytick_6">
     <g id="line2d_23">
      <path d="M 54.02 136.390183 
L 853.2 136.390183 
" clip-path="url(#pedbc43f081)" style="fill: none; stroke-dasharray: 2.96,1.28; stroke-dashoffset: 0; stroke: #b0b0b0; stroke-opacity: 0.7; stroke-width: 0.8"/>
     </g>
     <g id="line2d_24">
      <g>
       <use xlink:href="#m7d1f025cbf" x="54.02" y="136.390183" style="stroke: #000000; stroke-width: 0.8"/>
      </g>
     </g>
     <g id="text_13">
      <!-- 1.25 -->
      <g transform="translate(24.754375 140.189402) scale(0.1 -0.1)">
       <use xlink:href="#DejaVuSans-31"/>
       <use xlink:href="#DejaVuSans-2e" transform="translate(63.623047 0)"/>
       <use xlink:href="#DejaVuSans-32" transform="translate(95.410156 0)"/>
       <use xlink:href="#DejaVuSans-35" transform="translate(159.033203 0)"/>
      </g>
     </g>
    </g>
    <g id="ytick_7">
     <g id="line2d_25">
      <path d="M 54.02 85.983334 
L 853.2 85.983334 
" clip-path="url(#pedbc43f081)" style="fill: none; stroke-dasharray: 2.96,1.28; stroke-dashoffset: 0; stroke: #b0b0b0; stroke-opacity: 0.7; stroke-width: 0.8"/>
     </g>
     <g id="line2d_26">
      <g>
       <use xlink:href="#m7d1f025cbf" x="54.02" y="85.983334" style="stroke: #000000; stroke-width: 0.8"/>
      </g>
     </g>
     <g id="text_14">
      <!-- 1.50 -->
      <g transform="translate(24.754375 89.782552) scale(0.1 -0.1)">
       <use xlink:href="#DejaVuSans-31"/>
       <use xlink:href="#DejaVuSans-2e" transform="translate(63.623047 0)"/>
       <use xlink:href="#DejaVuSans-35" transform="translate(95.410156 0)"/>
       <use xlink:href="#DejaVuSans-30" transform="translate(159.033203 0)"/>
      </g>
     </g>
    </g>
    <g id="ytick_8">
     <g id="line2d_27">
      <path d="M 54.02 35.576484 
L 853.2 35.576484 
" clip-path="url(#pedbc43f081)" style="fill: none; stroke-dasharray: 2.96,1.28; stroke-dashoffset: 0; stroke: #b0b0b0; stroke-opacity: 0.7; stroke-width: 0.8"/>
     </g>
     <g id="line2d_28">
      <g>
       <use xlink:href="#m7d1f025cbf" x="54.02" y="35.576484" style="stroke: #000000; stroke-width: 0.8"/>
      </g>
     </g>
     <g id="text_15">
      <!-- 1.75 -->
      <g transform="translate(24.754375 39.375703) scale(0.1 -0.1)">
       <use xlink:href="#DejaVuSans-31"/>
       <use xlink:href="#DejaVuSans-2e" transform="translate(63.623047 0)"/>
       <use xlink:href="#DejaVuSans-37" transform="translate(95.410156 0)"/>
       <use xlink:href="#DejaVuSans-35" transform="translate(159.033203 0)"/>
      </g>
     </g>
    </g>
    <g id="text_16">
     <!-- Time per file (ms) -->
     <g transform="translate(18.674687 252.758437) rotate(-90) scale(0.1 -0.1)">
      <defs>
       <path id="DejaVuSans-54" d="M -19 4666 
L 3928 4666 
L 3928 4134 
L 2272 4134 
L 2272 0 
L 1638 0 
L 1638 4134 
L -19 4134 
L -19 4666 
z
" transform="scale(0.015625)"/>
       <path id="DejaVuSans-6d" d="M 3328 2828 
Q 3544 3216 3844 3400 
Q 4144 3584 4550 3584 
Q 5097 3584 5394 3201 
Q 5691 2819 5691 2113 
L 5691 0 
L 5113 0 
L 5113 2094 
Q 5113 2597 4934 2840 
Q 4756 3084 4391 3084 
Q 3944 3084 3684 2787 
Q 3425 2491 3425 1978 
L 3425 0 
L 2847 0 
L 2847 2094 
Q 2847 2600 2669 2842 
Q 2491 3084 2119 3084 
Q 1678 3084 1418 2786 
Q 1159 2488 1159 1978 
L 1159 0 
L 581 0 
L 581 3500 
L 1159 3500 
L 1159 2956 
Q 1356 3278 1631 3431 
Q 1906 3584 2284 3584 
Q 2666 3584 2933 3390 
Q 3200 3197 3328 2828 
z
" transform="scale(0.015625)"/>
       <path id="DejaVuSans-70" d="M 1159 525 
L 1159 -1331 
L 581 -1331 
L 581 3500 
L 1159 3500 
L 1159 2969 
Q 1341 3281 1617 3432 
Q 1894 3584 2278 3584 
Q 2916 3584 3314 3078 
Q 3713 2572 3713 1747 
Q 3713 922 3314 415 
Q 2916 -91 2278 -91 
Q 1894 -91 1617 61 
Q 1341 213 1159 525 
z
M 3116 1747 
Q 3116 2381 2855 2742 
Q 2594 3103 2138 3103 
Q 1681 3103 1420 2742 
Q 1159 2381 1159 1747 
Q 1159 1113 1420 752 
Q 1681 391 2138 391 
Q 2594 391 2855 752 
Q 3116 1113 3116 1747 
z
" transform="scale(0.015625)"/>
       <path id="DejaVuSans-72" d="M 2631 2963 
Q 2534 3019 2420 3045 
Q 2306 3072 2169 3072 
Q 1681 3072 1420 2755 
Q 1159 2438 1159 1844 
L 1159 0 
L 581 0 
L 581 3500 
L 1159 3500 
L 1159 2956 
Q 1341 3275 1631 3429 
Q 1922 3584 2338 3584 
Q 2397 3584 2469 3576 
Q 2541 3569 2628 3553 
L 2631 2963 
z
" transform="scale(0.015625)"/>
       <path id="DejaVuSans-66" d="M 2375 4863 
L 2375 4384 
L 1825 4384 
Q 1516 4384 1395 4259 
Q 1275 4134 1275 3809 
L 1275 3500 
L 2222 3500 
L 2222 3053 
L 1275 3053 
L 1275 0 
L 697 0 
L 697 3053 
L 147 3053 
L 147 3500 
L 697 3500 
L 697 3744 
Q 697 4328 969 4595 
Q 1241 4863 1831 4863 
L 2375 4863 
z
" transform="scale(0.015625)"/>
       <path id="DejaVuSans-28" d="M 1984 4856 
Q 1566 4138 1362 3434 
Q 1159 2731 1159 2009 
Q 1159 1288 1364 580 
Q 1569 -128 1984 -844 
L 1484 -844 
Q 1016 -109 783 600 
Q 550 1309 550 2009 
Q 550 2706 781 3412 
Q 1013 4119 1484 4856 
L 1984 4856 
z
" transform="scale(0.015625)"/>
       <path id="DejaVuSans-29" d="M 513 4856 
L 1013 4856 
Q 1481 4119 1714 3412 
Q 1947 2706 1947 2009 
Q 1947 1309 1714 600 
Q 1481 -109 1013 -844 
L 513 -844 
Q 928 -128 1133 580 
Q 1338 1288 1338 2009 
Q 1338 2731 1133 3434 
Q 928 4138 513 4856 
z
" transform="scale(0.015625)"/>
      </defs>
      <use xlink:href="#DejaVuSans-54"/>
      <use xlink:href="#DejaVuSans-69" transform="translate(57.958984 0)"/>
      <use xlink:href="#DejaVuSans-6d" transform="translate(85.742188 0)"/>
      <use xlink:href="#DejaVuSans-65" transform="translate(183.154297 0)"/>
      <use xlink:href="#DejaVuSans-20" transform="translate(244.677734 0)"/>
      <use xlink:href="#DejaVuSans-70" transform="translate(276.464844 0)"/>
      <use xlink:href="#DejaVuSans-65" transform="translate(339.941406 0)"/>
      <use xlink:href="#DejaVuSans-72" transform="translate(401.464844 0)"/>
      <use xlink:href="#DejaVuSans-20" transform="translate(442.578125 0)"/>
      <use xlink:href="#DejaVuSans-66" transform="translate(474.365234 0)"/>
      <use xlink:href="#DejaVuSans-69" transform="translate(509.570312 0)"/>
      <use xlink:href="#DejaVuSans-6c" transform="translate(537.353516 0)"/>
      <use xlink:href="#DejaVuSans-65" transform="translate(565.136719 0)"/>
      <use xlink:href="#DejaVuSans-20" transform="translate(626.660156 0)"/>
      <use xlink:href="#DejaVuSans-28" transform="translate(658.447266 0)"/>
      <use xlink:href="#DejaVuSans-6d" transform="translate(697.460938 0)"/>
      <use xlink:href="#DejaVuSans-73" transform="translate(794.873047 0)"/>
      <use xlink:href="#DejaVuSans-29" transform="translate(846.972656 0)"/>
     </g>
    </g>
   </g>
   <g id="line2d_29">
    <path d="M 90.346364 43.387273 
L 119.701001 251.010176 
L 156.394298 300.821754 
L 229.780891 278.181297 
L 449.94067 275.59611 
L 670.10045 238.421948 
L 816.873636 253.179788 
" clip-path="url(#pedbc43f081)" style="fill: none; stroke: #ff0000; stroke-width: 1.5; stroke-linecap: square"/>
    <defs>
     <path id="ma418a3c929" d="M 0 3 
C 0.795609 3 1.55874 2.683901 2.12132 2.12132 
C 2.683901 1.55874 3 0.795609 3 0 
C 3 -0.795609 2.683901 -1.55874 2.12132 -2.12132 
C 1.55874 -2.683901 0.795609 -3 0 -3 
C -0.795609 -3 -1.55874 -2.683901 -2.12132 -2.12132 
C -2.683901 -1.55874 -3 -0.795609 -3 0 
C -3 0.795609 -2.683901 1.55874 -2.12132 2.12132 
C -1.55874 2.683901 -0.795609 3 0 3 
z
" style="stroke: #ff0000"/>
    </defs>
    <g clip-path="url(#pedbc43f081)">
     <use xlink:href="#ma418a3c929" x="90.346364" y="43.387273" style="fill: #ff0000; stroke: #ff0000"/>
     <use xlink:href="#ma418a3c929" x="119.701001" y="251.010176" style="fill: #ff0000; stroke: #ff0000"/>
     <use xlink:href="#ma418a3c929" x="156.394298" y="300.821754" style="fill: #ff0000; stroke: #ff0000"/>
     <use xlink:href="#ma418a3c929" x="229.780891" y="278.181297" style="fill: #ff0000; stroke: #ff0000"/>
     <use xlink:href="#ma418a3c929" x="449.94067" y="275.59611" style="fill: #ff0000; stroke: #ff0000"/>
     <use xlink:href="#ma418a3c929" x="670.10045" y="238.421948" style="fill: #ff0000; stroke: #ff0000"/>
     <use xlink:href="#ma418a3c929" x="816.873636" y="253.179788" style="fill: #ff0000; stroke: #ff0000"/>
    </g>
   </g>
   <g id="line2d_30">
    <path d="M 90.346364 352.860975 
L 119.701001 367.59438 
L 156.394298 366.848884 
L 229.780891 369.994457 
L 449.94067 310.348011 
L 670.10045 321.847416 
L 816.873636 309.838879 
" clip-path="url(#pedbc43f081)" style="fill: none; stroke: #00aa00; stroke-width: 1.5; stroke-linecap: square"/>
    <defs>
     <path id="mea3c466945" d="M 0 3 
C 0.795609 3 1.55874 2.683901 2.12132 2.12132 
C 2.683901 1.55874 3 0.795609 3 0 
C 3 -0.795609 2.683901 -1.55874 2.12132 -2.12132 
C 1.55874 -2.683901 0.795609 -3 0 -3 
C -0.795609 -3 -1.55874 -2.683901 -2.12132 -2.12132 
C -2.683901 -1.55874 -3 -0.795609 -3 0 
C -3 0.795609 -2.683901 1.55874 -2.12132 2.12132 
C -1.55874 2.683901 -0.795609 3 0 3 
z
" style="stroke: #00aa00"/>
    </defs>
    <g clip-path="url(#pedbc43f081)">
     <use xlink:href="#mea3c466945" x="90.346364" y="352.860975" style="fill: #00aa00; stroke: #00aa00"/>
     <use xlink:href="#mea3c466945" x="119.701001" y="367.59438" style="fill: #00aa00; stroke: #00aa00"/>
     <use xlink:href="#mea3c466945" x="156.394298" y="366.848884" style="fill: #00aa00; stroke: #00aa00"/>
     <use xlink:href="#mea3c466945" x="229.780891" y="369.994457" style="fill: #00aa00; stroke: #00aa00"/>
     <use xlink:href="#mea3c466945" x="449.94067" y="310.348011" style="fill: #00aa00; stroke: #00aa00"/>
     <use xlink:href="#mea3c466945" x="670.10045" y="321.847416" style="fill: #00aa00; stroke: #00aa00"/>
     <use xlink:href="#mea3c466945" x="816.873636" y="309.838879" style="fill: #00aa00; stroke: #00aa00"/>
    </g>
   </g>
   <g id="line2d_31">
    <path d="M 90.346364 336.753585 
L 119.701001 356.129371 
L 156.394298 372.088413 
L 229.780891 372.005104 
L 449.94067 352.876445 
L 670.10045 348.048269 
L 816.873636 346.317419 
" clip-path="url(#pedbc43f081)" style="fill: none; stroke: #0000ff; stroke-width: 1.5; stroke-linecap: square"/>
    <defs>
     <path id="mffd596343e" d="M 0 3 
C 0.795609 3 1.55874 2.683901 2.12132 2.12132 
C 2.683901 1.55874 3 0.795609 3 0 
C 3 -0.795609 2.683901 -1.55874 2.12132 -2.12132 
C 1.55874 -2.683901 0.795609 -3 0 -3 
C -0.795609 -3 -1.55874 -2.683901 -2.12132 -2.12132 
C -2.683901 -1.55874 -3 -0.795609 -3 0 
C -3 0.795609 -2.683901 1.55874 -2.12132 2.12132 
C -1.55874 2.683901 -0.795609 3 0 3 
z
" style="stroke: #0000ff"/>
    </defs>
    <g clip-path="url(#pedbc43f081)">
     <use xlink:href="#mffd596343e" x="90.346364" y="336.753585" style="fill: #0000ff; stroke: #0000ff"/>
     <use xlink:href="#mffd596343e" x="119.701001" y="356.129371" style="fill: #0000ff; stroke: #0000ff"/>
     <use xlink:href="#mffd596343e" x="156.394298" y="372.088413" style="fill: #0000ff; stroke: #0000ff"/>
     <use xlink:href="#mffd596343e" x="229.780891" y="372.005104" style="fill: #0000ff; stroke: #0000ff"/>
     <use xlink:href="#mffd596343e" x="449.94067" y="352.876445" style="fill: #0000ff; stroke: #0000ff"/>
     <use xlink:href="#mffd596343e" x="670.10045" y="348.048269" style="fill: #0000ff; stroke: #0000ff"/>
     <use xlink:href="#mffd596343e" x="816.873636" y="346.317419" style="fill: #0000ff; stroke: #0000ff"/>
    </g>
   </g>
   <g id="line2d_32">
    <path d="M 90.346364 356.018806 
L 119.701001 371.271482 
L 156.394298 372.012988 
L 229.780891 372.296563 
L 449.94067 371.578737 
L 670.10045 371.666114 
L 816.873636 371.864792 
" clip-path="url(#pedbc43f081)" style="fill: none; stroke: #ffa500; stroke-width: 1.5; stroke-linecap: square"/>
    <defs>
     <path id="m3c9ed13931" d="M 0 3 
C 0.795609 3 1.55874 2.683901 2.12132 2.12132 
C 2.683901 1.55874 3 0.795609 3 0 
C 3 -0.795609 2.683901 -1.55874 2.12132 -2.12132 
C 1.55874 -2.683901 0.795609 -3 0 -3 
C -0.795609 -3 -1.55874 -2.683901 -2.12132 -2.12132 
C -2.683901 -1.55874 -3 -0.795609 -3 0 
C -3 0.795609 -2.683901 1.55874 -2.12132 2.12132 
C -1.55874 2.683901 -0.795609 3 0 3 
z
" style="stroke: #ffa500"/>
    </defs>
    <g clip-path="url(#pedbc43f081)">
     <use xlink:href="#m3c9ed13931" x="90.346364" y="356.018806" style="fill: #ffa500; stroke: #ffa500"/>
     <use xlink:href="#m3c9ed13931" x="119.701001" y="371.271482" style="fill: #ffa500; stroke: #ffa500"/>
     <use xlink:href="#m3c9ed13931" x="156.394298" y="372.012988" style="fill: #ffa500; stroke: #ffa500"/>
     <use xlink:href="#m3c9ed13931" x="229.780891" y="372.296563" style="fill: #ffa500; stroke: #ffa500"/>
     <use xlink:href="#m3c9ed13931" x="449.94067" y="371.578737" style="fill: #ffa500; stroke: #ffa500"/>
     <use xlink:href="#m3c9ed13931" x="670.10045" y="371.666114" style="fill: #ffa500; stroke: #ffa500"/>
     <use xlink:href="#m3c9ed13931" x="816.873636" y="371.864792" style="fill: #ffa500; stroke: #ffa500"/>
    </g>
   </g>
   <g id="line2d_33">
    <path d="M 90.346364 354.431959 
L 119.701001 369.776259 
L 156.394298 362.911329 
L 229.780891 373.442713 
L 449.94067 372.466747 
L 670.10045 371.927282 
L 816.873636 372.793913 
" clip-path="url(#pedbc43f081)" style="fill: none; stroke: #800080; stroke-opacity: 0.1; stroke-width: 1.5; stroke-linecap: square"/>
    <defs>
     <path id="m66852e08ca" d="M 0 3 
C 0.795609 3 1.55874 2.683901 2.12132 2.12132 
C 2.683901 1.55874 3 0.795609 3 0 
C 3 -0.795609 2.683901 -1.55874 2.12132 -2.12132 
C 1.55874 -2.683901 0.795609 -3 0 -3 
C -0.795609 -3 -1.55874 -2.683901 -2.12132 -2.12132 
C -2.683901 -1.55874 -3 -0.795609 -3 0 
C -3 0.795609 -2.683901 1.55874 -2.12132 2.12132 
C -1.55874 2.683901 -0.795609 3 0 3 
z
" style="stroke: #800080; stroke-opacity: 0.1"/>
    </defs>
    <g clip-path="url(#pedbc43f081)">
     <use xlink:href="#m66852e08ca" x="90.346364" y="354.431959" style="fill: #800080; fill-opacity: 0.1; stroke: #800080; stroke-opacity: 0.1"/>
     <use xlink:href="#m66852e08ca" x="119.701001" y="369.776259" style="fill: #800080; fill-opacity: 0.1; stroke: #800080; stroke-opacity: 0.1"/>
     <use xlink:href="#m66852e08ca" x="156.394298" y="362.911329" style="fill: #800080; fill-opacity: 0.1; stroke: #800080; stroke-opacity: 0.1"/>
     <use xlink:href="#m66852e08ca" x="229.780891" y="373.442713" style="fill: #800080; fill-opacity: 0.1; stroke: #800080; stroke-opacity: 0.1"/>
     <use xlink:href="#m66852e08ca" x="449.94067" y="372.466747" style="fill: #800080; fill-opacity: 0.1; stroke: #800080; stroke-opacity: 0.1"/>
     <use xlink:href="#m66852e08ca" x="670.10045" y="371.927282" style="fill: #800080; fill-opacity: 0.1; stroke: #800080; stroke-opacity: 0.1"/>
     <use xlink:href="#m66852e08ca" x="816.873636" y="372.793913" style="fill: #800080; fill-opacity: 0.1; stroke: #800080; stroke-opacity: 0.1"/>
    </g>
   </g>
   <g id="line2d_34">
    <path d="M 90.346364 359.932325 
L 119.701001 371.365125 
L 156.394298 370.548147 
L 229.780891 373.144716 
L 449.94067 370.062151 
L 670.10045 371.837424 
L 816.873636 371.776374 
" clip-path="url(#pedbc43f081)" style="fill: none; stroke: #008080; stroke-opacity: 0.1; stroke-width: 1.5; stroke-linecap: square"/>
    <defs>
     <path id="mf5859bfd89" d="M 0 3 
C 0.795609 3 1.55874 2.683901 2.12132 2.12132 
C 2.683901 1.55874 3 0.795609 3 0 
C 3 -0.795609 2.683901 -1.55874 2.12132 -2.12132 
C 1.55874 -2.683901 0.795609 -3 0 -3 
C -0.795609 -3 -1.55874 -2.683901 -2.12132 -2.12132 
C -2.683901 -1.55874 -3 -0.795609 -3 0 
C -3 0.795609 -2.683901 1.55874 -2.12132 2.12132 
C -1.55874 2.683901 -0.795609 3 0 3 
z
" style="stroke: #008080; stroke-opacity: 0.1"/>
    </defs>
    <g clip-path="url(#pedbc43f081)">
     <use xlink:href="#mf5859bfd89" x="90.346364" y="359.932325" style="fill: #008080; fill-opacity: 0.1; stroke: #008080; stroke-opacity: 0.1"/>
     <use xlink:href="#mf5859bfd89" x="119.701001" y="371.365125" style="fill: #008080; fill-opacity: 0.1; stroke: #008080; stroke-opacity: 0.1"/>
     <use xlink:href="#mf5859bfd89" x="156.394298" y="370.548147" style="fill: #008080; fill-opacity: 0.1; stroke: #008080; stroke-opacity: 0.1"/>
     <use xlink:href="#mf5859bfd89" x="229.780891" y="373.144716" style="fill: #008080; fill-opacity: 0.1; stroke: #008080; stroke-opacity: 0.1"/>
     <use xlink:href="#mf5859bfd89" x="449.94067" y="370.062151" style="fill: #008080; fill-opacity: 0.1; stroke: #008080; stroke-opacity: 0.1"/>
     <use xlink:href="#mf5859bfd89" x="670.10045" y="371.837424" style="fill: #008080; fill-opacity: 0.1; stroke: #008080; stroke-opacity: 0.1"/>
     <use xlink:href="#mf5859bfd89" x="816.873636" y="371.776374" style="fill: #008080; fill-opacity: 0.1; stroke: #008080; stroke-opacity: 0.1"/>
    </g>
   </g>
   <g id="line2d_35">
    <path d="M 90.346364 359.789552 
L 119.701001 370.889312 
L 156.394298 372.775165 
L 229.780891 373.532727 
L 449.94067 372.197862 
L 670.10045 372.458769 
L 816.873636 372.561256 
" clip-path="url(#pedbc43f081)" style="fill: none; stroke: #ff00ff; stroke-opacity: 0.1; stroke-width: 1.5; stroke-linecap: square"/>
    <defs>
     <path id="m4e3f1b4b07" d="M 0 3 
C 0.795609 3 1.55874 2.683901 2.12132 2.12132 
C 2.683901 1.55874 3 0.795609 3 0 
C 3 -0.795609 2.683901 -1.55874 2.12132 -2.12132 
C 1.55874 -2.683901 0.795609 -3 0 -3 
C -0.795609 -3 -1.55874 -2.683901 -2.12132 -2.12132 
C -2.683901 -1.55874 -3 -0.795609 -3 0 
C -3 0.795609 -2.683901 1.55874 -2.12132 2.12132 
C -1.55874 2.683901 -0.795609 3 0 3 
z
" style="stroke: #ff00ff; stroke-opacity: 0.1"/>
    </defs>
    <g clip-path="url(#pedbc43f081)">
     <use xlink:href="#m4e3f1b4b07" x="90.346364" y="359.789552" style="fill: #ff00ff; fill-opacity: 0.1; stroke: #ff00ff; stroke-opacity: 0.1"/>
     <use xlink:href="#m4e3f1b4b07" x="119.701001" y="370.889312" style="fill: #ff00ff; fill-opacity: 0.1; stroke: #ff00ff; stroke-opacity: 0.1"/>
     <use xlink:href="#m4e3f1b4b07" x="156.394298" y="372.775165" style="fill: #ff00ff; fill-opacity: 0.1; stroke: #ff00ff; stroke-opacity: 0.1"/>
     <use xlink:href="#m4e3f1b4b07" x="229.780891" y="373.532727" style="fill: #ff00ff; fill-opacity: 0.1; stroke: #ff00ff; stroke-opacity: 0.1"/>
     <use xlink:href="#m4e3f1b4b07" x="449.94067" y="372.197862" style="fill: #ff00ff; fill-opacity: 0.1; stroke: #ff00ff; stroke-opacity: 0.1"/>
     <use xlink:href="#m4e3f1b4b07" x="670.10045" y="372.458769" style="fill: #ff00ff; fill-opacity: 0.1; stroke: #ff00ff; stroke-opacity: 0.1"/>
     <use xlink:href="#m4e3f1b4b07" x="816.873636" y="372.561256" style="fill: #ff00ff; fill-opacity: 0.1; stroke: #ff00ff; stroke-opacity: 0.1"/>
    </g>
   </g>
   <g id="patch_3">
    <path d="M 54.02 390.04 
L 54.02 26.88 
" style="fill: none; stroke: #000000; stroke-width: 0.8; stroke-linejoin: miter; stroke-linecap: square"/>
   </g>
   <g id="patch_4">
    <path d="M 853.2 390.04 
L 853.2 26.88 
" style="fill: none; stroke: #000000; stroke-width: 0.8; stroke-linejoin: miter; stroke-linecap: square"/>
   </g>
   <g id="patch_5">
    <path d="M 54.02 390.04 
L 853.2 390.04 
" style="fill: none; stroke: #000000; stroke-width: 0.8; stroke-linejoin: miter; stroke-linecap: square"/>
   </g>
   <g id="patch_6">
    <path d="M 54.02 26.88 
L 853.2 26.88 
" style="fill: none; stroke: #000000; stroke-width: 0.8; stroke-linejoin: miter; stroke-linecap: square"/>
   </g>
   <g id="text_17">
    <!-- Time to handle one file -->
    <g transform="translate(384.525625 20.88) scale(0.12 -0.12)">
     <defs>
      <path id="DejaVuSans-68" d="M 3513 2113 
L 3513 0 
L 2938 0 
L 2938 2094 
Q 2938 2591 2744 2837 
Q 2550 3084 2163 3084 
Q 1697 3084 1428 2787 
Q 1159 2491 1159 1978 
L 1159 0 
L 581 0 
L 581 4863 
L 1159 4863 
L 1159 2956 
Q 1366 3272 1645 3428 
Q 1925 3584 2291 3584 
Q 2894 3584 3203 3211 
Q 3513 2838 3513 2113 
z
" transform="scale(0.015625)"/>
      <path id="DejaVuSans-61" d="M 2194 1759 
Q 1497 1759 1228 1600 
Q 959 1441 959 1056 
Q 959 750 1161 570 
Q 1363 391 1709 391 
Q 2188 391 2477 730 
Q 2766 1069 2766 1631 
L 2766 1759 
L 2194 1759 
z
M 3341 1997 
L 3341 0 
L 2766 0 
L 2766 531 
Q 2569 213 2275 61 
Q 1981 -91 1556 -91 
Q 1019 -91 701 211 
Q 384 513 384 1019 
Q 384 1609 779 1909 
Q 1175 2209 1959 2209 
L 2766 2209 
L 2766 2266 
Q 2766 2663 2505 2880 
Q 2244 3097 1772 3097 
Q 1472 3097 1187 3025 
Q 903 2953 641 2809 
L 641 3341 
Q 956 3463 1253 3523 
Q 1550 3584 1831 3584 
Q 2591 3584 2966 3190 
Q 3341 2797 3341 1997 
z
" transform="scale(0.015625)"/>
      <path id="DejaVuSans-64" d="M 2906 2969 
L 2906 4863 
L 3481 4863 
L 3481 0 
L 2906 0 
L 2906 525 
Q 2725 213 2448 61 
Q 2172 -91 1784 -91 
Q 1150 -91 751 415 
Q 353 922 353 1747 
Q 353 2572 751 3078 
Q 1150 3584 1784 3584 
Q 2172 3584 2448 3432 
Q 2725 3281 2906 2969 
z
M 947 1747 
Q 947 1113 1208 752 
Q 1469 391 1925 391 
Q 2381 391 2643 752 
Q 2906 1113 2906 1747 
Q 2906 2381 2643 2742 
Q 2381 3103 1925 3103 
Q 1469 3103 1208 2742 
Q 947 2381 947 1747 
z
" transform="scale(0.015625)"/>
     </defs>
     <use xlink:href="#DejaVuSans-54"/>
     <use xlink:href="#DejaVuSans-69" transform="translate(57.958984 0)"/>
     <use xlink:href="#DejaVuSans-6d" transform="translate(85.742188 0)"/>
     <use xlink:href="#DejaVuSans-65" transform="translate(183.154297 0)"/>
     <use xlink:href="#DejaVuSans-20" transform="translate(244.677734 0)"/>
     <use xlink:href="#DejaVuSans-74" transform="translate(276.464844 0)"/>
     <use xlink:href="#DejaVuSans-6f" transform="translate(315.673828 0)"/>
     <use xlink:href="#DejaVuSans-20" transform="translate(376.855469 0)"/>
     <use xlink:href="#DejaVuSans-68" transform="translate(408.642578 0)"/>
     <use xlink:href="#DejaVuSans-61" transform="translate(472.021484 0)"/>
     <use xlink:href="#DejaVuSans-6e" transform="translate(533.300781 0)"/>
     <use xlink:href="#DejaVuSans-64" transform="translate(596.679688 0)"/>
     <use xlink:href="#DejaVuSans-6c" transform="translate(660.15625 0)"/>
     <use xlink:href="#DejaVuSans-65" transform="translate(687.939453 0)"/>
     <use xlink:href="#DejaVuSans-20" transform="translate(749.462891 0)"/>
     <use xlink:href="#DejaVuSans-6f" transform="translate(781.25 0)"/>
     <use xlink:href="#DejaVuSans-6e" transform="translate(842.431641 0)"/>
     <use xlink:href="#DejaVuSans-65" transform="translate(905.810547 0)"/>
     <use xlink:href="#DejaVuSans-20" transform="translate(967.333984 0)"/>
     <use xlink:href="#DejaVuSans-66" transform="translate(999.121094 0)"/>
     <use xlink:href="#DejaVuSans-69" transform="translate(1034.326172 0)"/>
     <use xlink:href="#DejaVuSans-6c" transform="translate(1062.109375 0)"/>
     <use xlink:href="#DejaVuSans-65" transform="translate(1089.892578 0)"/>
    </g>
   </g>
   <g id="legend_1">
    <g id="patch_7">
     <path d="M 741.159375 137.626875 
L 846.2 137.626875 
Q 848.2 137.626875 848.2 135.626875 
L 848.2 33.88 
Q 848.2 31.88 846.2 31.88 
L 741.159375 31.88 
Q 739.159375 31.88 739.159375 33.88 
L 739.159375 135.626875 
Q 739.159375 137.626875 741.159375 137.626875 
z
" style="fill: #ffffff; opacity: 0.8; stroke: #cccccc; stroke-linejoin: miter"/>
    </g>
    <g id="line2d_36">
     <path d="M 743.159375 39.978437 
L 753.159375 39.978437 
L 763.159375 39.978437 
" style="fill: none; stroke: #ff0000; stroke-width: 1.5; stroke-linecap: square"/>
     <g>
      <use xlink:href="#ma418a3c929" x="753.159375" y="39.978437" style="fill: #ff0000; stroke: #ff0000"/>
     </g>
    </g>
    <g id="text_18">
     <!-- imohash T=1 -->
     <g transform="translate(771.159375 43.478437) scale(0.1 -0.1)">
      <defs>
       <path id="DejaVuSans-3d" d="M 678 2906 
L 4684 2906 
L 4684 2381 
L 678 2381 
L 678 2906 
z
M 678 1631 
L 4684 1631 
L 4684 1100 
L 678 1100 
L 678 1631 
z
" transform="scale(0.015625)"/>
      </defs>
      <use xlink:href="#DejaVuSans-69"/>
      <use xlink:href="#DejaVuSans-6d" transform="translate(27.783203 0)"/>
      <use xlink:href="#DejaVuSans-6f" transform="translate(125.195312 0)"/>
      <use xlink:href="#DejaVuSans-68" transform="translate(186.376953 0)"/>
      <use xlink:href="#DejaVuSans-61" transform="translate(249.755859 0)"/>
      <use xlink:href="#DejaVuSans-73" transform="translate(311.035156 0)"/>
      <use xlink:href="#DejaVuSans-68" transform="translate(363.134766 0)"/>
      <use xlink:href="#DejaVuSans-20" transform="translate(426.513672 0)"/>
      <use xlink:href="#DejaVuSans-54" transform="translate(458.300781 0)"/>
      <use xlink:href="#DejaVuSans-3d" transform="translate(519.384766 0)"/>
      <use xlink:href="#DejaVuSans-31" transform="translate(603.173828 0)"/>
     </g>
    </g>
    <g id="line2d_37">
     <path d="M 743.159375 54.656563 
L 753.159375 54.656563 
L 763.159375 54.656563 
" style="fill: none; stroke: #00aa00; stroke-width: 1.5; stroke-linecap: square"/>
     <g>
      <use xlink:href="#mea3c466945" x="753.159375" y="54.656563" style="fill: #00aa00; stroke: #00aa00"/>
     </g>
    </g>
    <g id="text_19">
     <!-- imohash T=2 -->
     <g transform="translate(771.159375 58.156563) scale(0.1 -0.1)">
      <use xlink:href="#DejaVuSans-69"/>
      <use xlink:href="#DejaVuSans-6d" transform="translate(27.783203 0)"/>
      <use xlink:href="#DejaVuSans-6f" transform="translate(125.195312 0)"/>
      <use xlink:href="#DejaVuSans-68" transform="translate(186.376953 0)"/>
      <use xlink:href="#DejaVuSans-61" transform="translate(249.755859 0)"/>
      <use xlink:href="#DejaVuSans-73" transform="translate(311.035156 0)"/>
      <use xlink:href="#DejaVuSans-68" transform="translate(363.134766 0)"/>
      <use xlink:href="#DejaVuSans-20" transform="translate(426.513672 0)"/>
      <use xlink:href="#DejaVuSans-54" transform="translate(458.300781 0)"/>
      <use xlink:href="#DejaVuSans-3d" transform="translate(519.384766 0)"/>
      <use xlink:href="#DejaVuSans-32" transform="translate(603.173828 0)"/>
     </g>
    </g>
    <g id="line2d_38">
     <path d="M 743.159375 69.334687 
L 753.159375 69.334687 
L 763.159375 69.334687 
" style="fill: none; stroke: #0000ff; stroke-width: 1.5; stroke-linecap: square"/>
     <g>
      <use xlink:href="#mffd596343e" x="753.159375" y="69.334687" style="fill: #0000ff; stroke: #0000ff"/>
     </g>
    </g>
    <g id="text_20">
     <!-- imohash T=4 -->
     <g transform="translate(771.159375 72.834687) scale(0.1 -0.1)">
      <use xlink:href="#DejaVuSans-69"/>
      <use xlink:href="#DejaVuSans-6d" transform="translate(27.783203 0)"/>
      <use xlink:href="#DejaVuSans-6f" transform="translate(125.195312 0)"/>
      <use xlink:href="#DejaVuSans-68" transform="translate(186.376953 0)"/>
      <use xlink:href="#DejaVuSans-61" transform="translate(249.755859 0)"/>
      <use xlink:href="#DejaVuSans-73" transform="translate(311.035156 0)"/>
      <use xlink:href="#DejaVuSans-68" transform="translate(363.134766 0)"/>
      <use xlink:href="#DejaVuSans-20" transform="translate(426.513672 0)"/>
      <use xlink:href="#DejaVuSans-54" transform="translate(458.300781 0)"/>
      <use xlink:href="#DejaVuSans-3d" transform="translate(519.384766 0)"/>
      <use xlink:href="#DejaVuSans-34" transform="translate(603.173828 0)"/>
     </g>
    </g>
    <g id="line2d_39">
     <path d="M 743.159375 84.012812 
L 753.159375 84.012812 
L 763.159375 84.012812 
" style="fill: none; stroke: #ffa500; stroke-width: 1.5; stroke-linecap: square"/>
     <g>
      <use xlink:href="#m3c9ed13931" x="753.159375" y="84.012812" style="fill: #ffa500; stroke: #ffa500"/>
     </g>
    </g>
    <g id="text_21">
     <!-- imohash T=8 -->
     <g transform="translate(771.159375 87.512812) scale(0.1 -0.1)">
      <use xlink:href="#DejaVuSans-69"/>
      <use xlink:href="#DejaVuSans-6d" transform="translate(27.783203 0)"/>
      <use xlink:href="#DejaVuSans-6f" transform="translate(125.195312 0)"/>
      <use xlink:href="#DejaVuSans-68" transform="translate(186.376953 0)"/>
      <use xlink:href="#DejaVuSans-61" transform="translate(249.755859 0)"/>
      <use xlink:href="#DejaVuSans-73" transform="translate(311.035156 0)"/>
      <use xlink:href="#DejaVuSans-68" transform="translate(363.134766 0)"/>
      <use xlink:href="#DejaVuSans-20" transform="translate(426.513672 0)"/>
      <use xlink:href="#DejaVuSans-54" transform="translate(458.300781 0)"/>
      <use xlink:href="#DejaVuSans-3d" transform="translate(519.384766 0)"/>
      <use xlink:href="#DejaVuSans-38" transform="translate(603.173828 0)"/>
     </g>
    </g>
    <g id="line2d_40">
     <path d="M 743.159375 98.690938 
L 753.159375 98.690938 
L 763.159375 98.690938 
" style="fill: none; stroke: #800080; stroke-opacity: 0.1; stroke-width: 1.5; stroke-linecap: square"/>
     <g>
      <use xlink:href="#m66852e08ca" x="753.159375" y="98.690938" style="fill: #800080; fill-opacity: 0.1; stroke: #800080; stroke-opacity: 0.1"/>
     </g>
    </g>
    <g id="text_22">
     <!-- imohash T=16 -->
     <g transform="translate(771.159375 102.190938) scale(0.1 -0.1)">
      <use xlink:href="#DejaVuSans-69"/>
      <use xlink:href="#DejaVuSans-6d" transform="translate(27.783203 0)"/>
      <use xlink:href="#DejaVuSans-6f" transform="translate(125.195312 0)"/>
      <use xlink:href="#DejaVuSans-68" transform="translate(186.376953 0)"/>
      <use xlink:href="#DejaVuSans-61" transform="translate(249.755859 0)"/>
      <use xlink:href="#DejaVuSans-73" transform="translate(311.035156 0)"/>
      <use xlink:href="#DejaVuSans-68" transform="translate(363.134766 0)"/>
      <use xlink:href="#DejaVuSans-20" transform="translate(426.513672 0)"/>
      <use xlink:href="#DejaVuSans-54" transform="translate(458.300781 0)"/>
      <use xlink:href="#DejaVuSans-3d" transform="translate(519.384766 0)"/>
      <use xlink:href="#DejaVuSans-31" transform="translate(603.173828 0)"/>
      <use xlink:href="#DejaVuSans-36" transform="translate(666.796875 0)"/>
     </g>
    </g>
    <g id="line2d_41">
     <path d="M 743.159375 113.369062 
L 753.159375 113.369062 
L 763.159375 113.369062 
" style="fill: none; stroke: #008080; stroke-opacity: 0.1; stroke-width: 1.5; stroke-linecap: square"/>
     <g>
      <use xlink:href="#mf5859bfd89" x="753.159375" y="113.369062" style="fill: #008080; fill-opacity: 0.1; stroke: #008080; stroke-opacity: 0.1"/>
     </g>
    </g>
    <g id="text_23">
     <!-- imohash T=32 -->
     <g transform="translate(771.159375 116.869062) scale(0.1 -0.1)">
      <defs>
       <path id="DejaVuSans-33" d="M 2597 2516 
Q 3050 2419 3304 2112 
Q 3559 1806 3559 1356 
Q 3559 666 3084 287 
Q 2609 -91 1734 -91 
Q 1441 -91 1130 -33 
Q 819 25 488 141 
L 488 750 
Q 750 597 1062 519 
Q 1375 441 1716 441 
Q 2309 441 2620 675 
Q 2931 909 2931 1356 
Q 2931 1769 2642 2001 
Q 2353 2234 1838 2234 
L 1294 2234 
L 1294 2753 
L 1863 2753 
Q 2328 2753 2575 2939 
Q 2822 3125 2822 3475 
Q 2822 3834 2567 4026 
Q 2313 4219 1838 4219 
Q 1578 4219 1281 4162 
Q 984 4106 628 3988 
L 628 4550 
Q 988 4650 1302 4700 
Q 1616 4750 1894 4750 
Q 2613 4750 3031 4423 
Q 3450 4097 3450 3541 
Q 3450 3153 3228 2886 
Q 3006 2619 2597 2516 
z
" transform="scale(0.015625)"/>
      </defs>
      <use xlink:href="#DejaVuSans-69"/>
      <use xlink:href="#DejaVuSans-6d" transform="translate(27.783203 0)"/>
      <use xlink:href="#DejaVuSans-6f" transform="translate(125.195312 0)"/>
      <use xlink:href="#DejaVuSans-68" transform="translate(186.376953 0)"/>
      <use xlink:href="#DejaVuSans-61" transform="translate(249.755859 0)"/>
      <use xlink:href="#DejaVuSans-73" transform="translate(311.035156 0)"/>
      <use xlink:href="#DejaVuSans-68" transform="translate(363.134766 0)"/>
      <use xlink:href="#DejaVuSans-20" transform="translate(426.513672 0)"/>
      <use xlink:href="#DejaVuSans-54" transform="translate(458.300781 0)"/>
      <use xlink:href="#DejaVuSans-3d" transform="translate(519.384766 0)"/>
      <use xlink:href="#DejaVuSans-33" transform="translate(603.173828 0)"/>
      <use xlink:href="#DejaVuSans-32" transform="translate(666.796875 0)"/>
     </g>
    </g>
    <g id="line2d_42">
     <path d="M 743.159375 128.047187 
L 753.159375 128.047187 
L 763.159375 128.047187 
" style="fill: none; stroke: #ff00ff; stroke-opacity: 0.1; stroke-width: 1.5; stroke-linecap: square"/>
     <g>
      <use xlink:href="#m4e3f1b4b07" x="753.159375" y="128.047187" style="fill: #ff00ff; fill-opacity: 0.1; stroke: #ff00ff; stroke-opacity: 0.1"/>
     </g>
    </g>
    <g id="text_24">
     <!-- imohash T=64 -->
     <g transform="translate(771.159375 131.547187) scale(0.1 -0.1)">
      <use xlink:href="#DejaVuSans-69"/>
      <use xlink:href="#DejaVuSans-6d" transform="translate(27.783203 0)"/>
      <use xlink:href="#DejaVuSans-6f" transform="translate(125.195312 0)"/>
      <use xlink:href="#DejaVuSans-68" transform="translate(186.376953 0)"/>
      <use xlink:href="#DejaVuSans-61" transform="translate(249.755859 0)"/>
      <use xlink:href="#DejaVuSans-73" transform="translate(311.035156 0)"/>
      <use xlink:href="#DejaVuSans-68" transform="translate(363.134766 0)"/>
      <use xlink:href="#DejaVuSans-20" transform="translate(426.513672 0)"/>
      <use xlink:href="#DejaVuSans-54" transform="translate(458.300781 0)"/>
      <use xlink:href="#DejaVuSans-3d" transform="translate(519.384766 0)"/>
      <use xlink:href="#DejaVuSans-36" transform="translate(603.173828 0)"/>
      <use xlink:href="#DejaVuSans-34" transform="translate(666.796875 0)"/>
     </g>
    </g>
   </g>
  </g>
 </g>
 <defs>
  <clipPath id="pedbc43f081">
   <rect x="54.02" y="26.88" width="799.18" height="363.16"/>
  </clipPath>
 </defs>
</svg>
